<?xml version="1.0" encoding="UTF-8" standalone="no"?>
<!DOCTYPE svg PUBLIC "-//W3C//DTD SVG 1.1//EN"
 "http://www.w3.org/Graphics/SVG/1.1/DTD/svg11.dtd">
<!-- Generated by graphviz version 2.47.0 (20210316.0004)
 -->
<!-- Title: dependencies Pages: 1 -->
<svg width="669pt" height="211pt"
 viewBox="0.00 0.00 669.00 211.00" xmlns="http://www.w3.org/2000/svg" xmlns:xlink="http://www.w3.org/1999/xlink">
<g id="graph0" class="graph" transform="scale(1 1) rotate(0) translate(4 207)">
<title>dependencies</title>
<polygon fill="white" stroke="transparent" points="-4,4 -4,-207 665,-207 665,4 -4,4"/>
<text text-anchor="start" x="309.51" y="-42.4" font-family="Times-12" font-weight="bold" font-size="14.00">Legend</text>
<polygon fill="#ffffb3" stroke="transparent" points="96.5,-10 96.5,-30 116.5,-30 116.5,-10 96.5,-10"/>
<text text-anchor="start" x="120.13" y="-15.4" font-family="Times-12" font-size="14.00"> &#160;Declarations</text>
<polygon fill="#8dd3c7" stroke="transparent" points="209.5,-10 209.5,-30 229.5,-30 229.5,-10 209.5,-10"/>
<text text-anchor="start" x="233.23" y="-15.4" font-family="Times-12" font-size="14.00"> &#160;Module</text>
<polygon fill="#80b1d3" stroke="transparent" points="295.5,-10 295.5,-30 315.5,-30 315.5,-10 295.5,-10"/>
<text text-anchor="start" x="319.28" y="-15.4" font-family="Times-12" font-size="14.00"> &#160;Bootstrap</text>
<polygon fill="#fdb462" stroke="transparent" points="392.5,-10 392.5,-30 412.5,-30 412.5,-10 392.5,-10"/>
<text text-anchor="start" x="416.17" y="-15.4" font-family="Times-12" font-size="14.00"> &#160;Providers</text>
<polygon fill="#fb8072" stroke="transparent" points="488.5,-10 488.5,-30 508.5,-30 508.5,-10 488.5,-10"/>
<text text-anchor="start" x="512.23" y="-15.4" font-family="Times-12" font-size="14.00"> &#160;Exports</text>
<g id="clust1" class="cluster">
<title>cluster_FilmsPageModule</title>
<polygon fill="none" stroke="black" stroke-dasharray="1,5" points="8,-70 8,-195 653,-195 653,-70 8,-70"/>
</g>
<g id="clust4" class="cluster">
<title>cluster_FilmsPageModule_imports</title>
<polygon fill="none" stroke="black" points="116,-78 116,-130 645,-130 645,-78 116,-78"/>
</g>
<g id="clust2" class="cluster">
<title>cluster_FilmsPageModule_declarations</title>
<polygon fill="none" stroke="black" points="16,-78 16,-130 108,-130 108,-78 16,-78"/>
</g>
<!-- FilmsPage -->
<g id="node1" class="node">
<title>FilmsPage</title>
<polygon fill="#ffffb3" stroke="black" points="99.61,-122 24.39,-122 24.39,-86 99.61,-86 99.61,-122"/>
<text text-anchor="middle" x="62" y="-99.8" font-family="Times,serif" font-size="14.00">FilmsPage</text>
</g>
<!-- FilmsPageModule -->
<g id="node2" class="node">
<title>FilmsPageModule</title>
<polygon fill="#8dd3c7" stroke="black" points="409.16,-187 406.16,-191 385.16,-191 382.16,-187 290.84,-187 290.84,-151 409.16,-151 409.16,-187"/>
<text text-anchor="middle" x="350" y="-164.8" font-family="Times,serif" font-size="14.00">FilmsPageModule</text>
</g>
<!-- FilmsPage&#45;&gt;FilmsPageModule -->
<g id="edge1" class="edge">
<title>FilmsPage&#45;&gt;FilmsPageModule</title>
<path fill="none" stroke="black" d="M62,-122.11C62,-141.34 62,-169 62,-169 62,-169 280.68,-169 280.68,-169"/>
<polygon fill="black" stroke="black" points="280.68,-172.5 290.68,-169 280.68,-165.5 280.68,-172.5"/>
</g>
<!-- CommonModule -->
<g id="node3" class="node">
<title>CommonModule</title>
<polygon fill="#8dd3c7" stroke="black" points="636.67,-122 633.67,-126 612.67,-126 609.67,-122 525.33,-122 525.33,-86 636.67,-86 636.67,-122"/>
<text text-anchor="middle" x="581" y="-99.8" font-family="Times,serif" font-size="14.00">CommonModule</text>
</g>
<!-- CommonModule&#45;&gt;FilmsPageModule -->
<g id="edge2" class="edge">
<title>CommonModule&#45;&gt;FilmsPageModule</title>
<path fill="none" stroke="black" d="M581,-122.11C581,-141.34 581,-169 581,-169 581,-169 419.19,-169 419.19,-169"/>
<polygon fill="black" stroke="black" points="419.19,-165.5 409.19,-169 419.19,-172.5 419.19,-165.5"/>
</g>
<!-- FormsModule -->
<g id="node4" class="node">
<title>FormsModule</title>
<polygon fill="#8dd3c7" stroke="black" points="507.83,-122 504.83,-126 483.83,-126 480.83,-122 412.17,-122 412.17,-86 507.83,-86 507.83,-122"/>
<text text-anchor="middle" x="460" y="-99.8" font-family="Times,serif" font-size="14.00">FormsModule</text>
</g>
<!-- FormsModule&#45;&gt;FilmsPageModule -->
<g id="edge3" class="edge">
<title>FormsModule&#45;&gt;FilmsPageModule</title>
<path fill="none" stroke="black" d="M412.16,-104C405.98,-104 401.74,-104 401.74,-104 401.74,-104 401.74,-140.89 401.74,-140.89"/>
<polygon fill="black" stroke="black" points="398.24,-140.89 401.74,-150.89 405.24,-140.89 398.24,-140.89"/>
</g>
<!-- IonicModule -->
<g id="node5" class="node">
<title>IonicModule</title>
<polygon fill="#8dd3c7" stroke="black" points="394.32,-122 391.32,-126 370.32,-126 367.32,-122 305.68,-122 305.68,-86 394.32,-86 394.32,-122"/>
<text text-anchor="middle" x="350" y="-99.8" font-family="Times,serif" font-size="14.00">IonicModule</text>
</g>
<!-- IonicModule&#45;&gt;FilmsPageModule -->
<g id="edge4" class="edge">
<title>IonicModule&#45;&gt;FilmsPageModule</title>
<path fill="none" stroke="black" d="M350,-122.11C350,-122.11 350,-140.99 350,-140.99"/>
<polygon fill="black" stroke="black" points="346.5,-140.99 350,-150.99 353.5,-140.99 346.5,-140.99"/>
</g>
<!-- FilmsPageRoutingModule -->
<g id="node6" class="node">
<title>FilmsPageRoutingModule</title>
<polygon fill="#8dd3c7" stroke="black" points="287.78,-122 284.78,-126 263.78,-126 260.78,-122 124.22,-122 124.22,-86 287.78,-86 287.78,-122"/>
<text text-anchor="middle" x="206" y="-99.8" font-family="Times,serif" font-size="14.00">FilmsPageRoutingModule</text>
</g>
<!-- FilmsPageRoutingModule&#45;&gt;FilmsPageModule -->
<g id="edge5" class="edge">
<title>FilmsPageRoutingModule&#45;&gt;FilmsPageModule</title>
<path fill="none" stroke="black" d="M288.03,-104C294.3,-104 298.26,-104 298.26,-104 298.26,-104 298.26,-140.89 298.26,-140.89"/>
<polygon fill="black" stroke="black" points="294.76,-140.89 298.26,-150.89 301.76,-140.89 294.76,-140.89"/>
</g>
</g>
</svg>
