<?xml version="1.0" encoding="UTF-8" standalone="no"?>
<!DOCTYPE svg PUBLIC "-//W3C//DTD SVG 1.1//EN"
 "http://www.w3.org/Graphics/SVG/1.1/DTD/svg11.dtd">
<!-- Generated by graphviz version 2.47.0 (20210316.0004)
 -->
<!-- Title: dependencies Pages: 1 -->
<svg width="737pt" height="211pt"
 viewBox="0.00 0.00 737.00 211.00" xmlns="http://www.w3.org/2000/svg" xmlns:xlink="http://www.w3.org/1999/xlink">
<g id="graph0" class="graph" transform="scale(1 1) rotate(0) translate(4 207)">
<title>dependencies</title>
<polygon fill="white" stroke="transparent" points="-4,4 -4,-207 733,-207 733,4 -4,4"/>
<text text-anchor="start" x="343.51" y="-42.4" font-family="Times-12" font-weight="bold" font-size="14.00">Legend</text>
<polygon fill="#ffffb3" stroke="transparent" points="130.5,-10 130.5,-30 150.5,-30 150.5,-10 130.5,-10"/>
<text text-anchor="start" x="154.13" y="-15.4" font-family="Times-12" font-size="14.00"> &#160;Declarations</text>
<polygon fill="#8dd3c7" stroke="transparent" points="243.5,-10 243.5,-30 263.5,-30 263.5,-10 243.5,-10"/>
<text text-anchor="start" x="267.23" y="-15.4" font-family="Times-12" font-size="14.00"> &#160;Module</text>
<polygon fill="#80b1d3" stroke="transparent" points="329.5,-10 329.5,-30 349.5,-30 349.5,-10 329.5,-10"/>
<text text-anchor="start" x="353.28" y="-15.4" font-family="Times-12" font-size="14.00"> &#160;Bootstrap</text>
<polygon fill="#fdb462" stroke="transparent" points="426.5,-10 426.5,-30 446.5,-30 446.5,-10 426.5,-10"/>
<text text-anchor="start" x="450.17" y="-15.4" font-family="Times-12" font-size="14.00"> &#160;Providers</text>
<polygon fill="#fb8072" stroke="transparent" points="522.5,-10 522.5,-30 542.5,-30 542.5,-10 522.5,-10"/>
<text text-anchor="start" x="546.23" y="-15.4" font-family="Times-12" font-size="14.00"> &#160;Exports</text>
<g id="clust1" class="cluster">
<title>cluster_FilmDetailsPageModule</title>
<polygon fill="none" stroke="black" stroke-dasharray="1,5" points="8,-70 8,-195 721,-195 721,-70 8,-70"/>
</g>
<g id="clust4" class="cluster">
<title>cluster_FilmDetailsPageModule_imports</title>
<polygon fill="none" stroke="black" points="150,-78 150,-130 713,-130 713,-78 150,-78"/>
</g>
<g id="clust2" class="cluster">
<title>cluster_FilmDetailsPageModule_declarations</title>
<polygon fill="none" stroke="black" points="16,-78 16,-130 142,-130 142,-78 16,-78"/>
</g>
<!-- FilmDetailsPage -->
<g id="node1" class="node">
<title>FilmDetailsPage</title>
<polygon fill="#ffffb3" stroke="black" points="133.82,-122 24.18,-122 24.18,-86 133.82,-86 133.82,-122"/>
<text text-anchor="middle" x="79" y="-99.8" font-family="Times,serif" font-size="14.00">FilmDetailsPage</text>
</g>
<!-- FilmDetailsPageModule -->
<g id="node2" class="node">
<title>FilmDetailsPageModule</title>
<polygon fill="#8dd3c7" stroke="black" points="494.37,-187 491.37,-191 470.37,-191 467.37,-187 341.63,-187 341.63,-151 494.37,-151 494.37,-187"/>
<text text-anchor="middle" x="418" y="-164.8" font-family="Times,serif" font-size="14.00">FilmDetailsPageModule</text>
</g>
<!-- FilmDetailsPage&#45;&gt;FilmDetailsPageModule -->
<g id="edge1" class="edge">
<title>FilmDetailsPage&#45;&gt;FilmDetailsPageModule</title>
<path fill="none" stroke="black" d="M79,-122.11C79,-141.34 79,-169 79,-169 79,-169 331.5,-169 331.5,-169"/>
<polygon fill="black" stroke="black" points="331.5,-172.5 341.5,-169 331.5,-165.5 331.5,-172.5"/>
</g>
<!-- CommonModule -->
<g id="node3" class="node">
<title>CommonModule</title>
<polygon fill="#8dd3c7" stroke="black" points="704.67,-122 701.67,-126 680.67,-126 677.67,-122 593.33,-122 593.33,-86 704.67,-86 704.67,-122"/>
<text text-anchor="middle" x="649" y="-99.8" font-family="Times,serif" font-size="14.00">CommonModule</text>
</g>
<!-- CommonModule&#45;&gt;FilmDetailsPageModule -->
<g id="edge2" class="edge">
<title>CommonModule&#45;&gt;FilmDetailsPageModule</title>
<path fill="none" stroke="black" d="M649,-122.11C649,-141.34 649,-169 649,-169 649,-169 504.6,-169 504.6,-169"/>
<polygon fill="black" stroke="black" points="504.6,-165.5 494.6,-169 504.6,-172.5 504.6,-165.5"/>
</g>
<!-- FormsModule -->
<g id="node4" class="node">
<title>FormsModule</title>
<polygon fill="#8dd3c7" stroke="black" points="575.83,-122 572.83,-126 551.83,-126 548.83,-122 480.17,-122 480.17,-86 575.83,-86 575.83,-122"/>
<text text-anchor="middle" x="528" y="-99.8" font-family="Times,serif" font-size="14.00">FormsModule</text>
</g>
<!-- FormsModule&#45;&gt;FilmDetailsPageModule -->
<g id="edge3" class="edge">
<title>FormsModule&#45;&gt;FilmDetailsPageModule</title>
<path fill="none" stroke="black" d="M487.38,-122.11C487.38,-122.11 487.38,-140.99 487.38,-140.99"/>
<polygon fill="black" stroke="black" points="483.89,-140.99 487.38,-150.99 490.89,-140.99 483.89,-140.99"/>
</g>
<!-- IonicModule -->
<g id="node5" class="node">
<title>IonicModule</title>
<polygon fill="#8dd3c7" stroke="black" points="462.32,-122 459.32,-126 438.32,-126 435.32,-122 373.68,-122 373.68,-86 462.32,-86 462.32,-122"/>
<text text-anchor="middle" x="418" y="-99.8" font-family="Times,serif" font-size="14.00">IonicModule</text>
</g>
<!-- IonicModule&#45;&gt;FilmDetailsPageModule -->
<g id="edge4" class="edge">
<title>IonicModule&#45;&gt;FilmDetailsPageModule</title>
<path fill="none" stroke="black" d="M418,-122.11C418,-122.11 418,-140.99 418,-140.99"/>
<polygon fill="black" stroke="black" points="414.5,-140.99 418,-150.99 421.5,-140.99 414.5,-140.99"/>
</g>
<!-- FilmDetailsPageRoutingModule -->
<g id="node6" class="node">
<title>FilmDetailsPageRoutingModule</title>
<polygon fill="#8dd3c7" stroke="black" points="355.99,-122 352.99,-126 331.99,-126 328.99,-122 158.01,-122 158.01,-86 355.99,-86 355.99,-122"/>
<text text-anchor="middle" x="257" y="-99.8" font-family="Times,serif" font-size="14.00">FilmDetailsPageRoutingModule</text>
</g>
<!-- FilmDetailsPageRoutingModule&#45;&gt;FilmDetailsPageModule -->
<g id="edge5" class="edge">
<title>FilmDetailsPageRoutingModule&#45;&gt;FilmDetailsPageModule</title>
<path fill="none" stroke="black" d="M348.78,-122.11C348.78,-122.11 348.78,-140.99 348.78,-140.99"/>
<polygon fill="black" stroke="black" points="345.28,-140.99 348.78,-150.99 352.28,-140.99 345.28,-140.99"/>
</g>
</g>
</svg>
