<?xml version="1.0" encoding="UTF-8" standalone="no"?>
<!DOCTYPE svg PUBLIC "-//W3C//DTD SVG 1.1//EN"
 "http://www.w3.org/Graphics/SVG/1.1/DTD/svg11.dtd">
<!-- Generated by graphviz version 2.47.0 (20210316.0004)
 -->
<!-- Title: dependencies Pages: 1 -->
<svg width="4737pt" height="290pt"
 viewBox="0.00 0.00 4737.00 290.00" xmlns="http://www.w3.org/2000/svg" xmlns:xlink="http://www.w3.org/1999/xlink">
<g id="graph0" class="graph" transform="scale(1 1) rotate(0) translate(4 286)">
<title>dependencies</title>
<polygon fill="white" stroke="transparent" points="-4,4 -4,-286 4733,-286 4733,4 -4,4"/>
<text text-anchor="start" x="2343.51" y="-42.4" font-family="Times-12" font-weight="bold" font-size="14.00">Legend</text>
<polygon fill="#ffffb3" stroke="transparent" points="2130.5,-10 2130.5,-30 2150.5,-30 2150.5,-10 2130.5,-10"/>
<text text-anchor="start" x="2154.13" y="-15.4" font-family="Times-12" font-size="14.00"> &#160;Declarations</text>
<polygon fill="#8dd3c7" stroke="transparent" points="2243.5,-10 2243.5,-30 2263.5,-30 2263.5,-10 2243.5,-10"/>
<text text-anchor="start" x="2267.23" y="-15.4" font-family="Times-12" font-size="14.00"> &#160;Module</text>
<polygon fill="#80b1d3" stroke="transparent" points="2329.5,-10 2329.5,-30 2349.5,-30 2349.5,-10 2329.5,-10"/>
<text text-anchor="start" x="2353.28" y="-15.4" font-family="Times-12" font-size="14.00"> &#160;Bootstrap</text>
<polygon fill="#fdb462" stroke="transparent" points="2426.5,-10 2426.5,-30 2446.5,-30 2446.5,-10 2426.5,-10"/>
<text text-anchor="start" x="2450.17" y="-15.4" font-family="Times-12" font-size="14.00"> &#160;Providers</text>
<polygon fill="#fb8072" stroke="transparent" points="2522.5,-10 2522.5,-30 2542.5,-30 2542.5,-10 2522.5,-10"/>
<text text-anchor="start" x="2546.23" y="-15.4" font-family="Times-12" font-size="14.00"> &#160;Exports</text>
<g id="clust1" class="cluster">
<title>cluster_AppModule</title>
<polygon fill="none" stroke="black" stroke-dasharray="1,5" points="8,-70 8,-274 1124,-274 1124,-70 8,-70"/>
</g>
<g id="clust2" class="cluster">
<title>cluster_AppModule_declarations</title>
<polygon fill="none" stroke="black" points="994,-78 994,-130 1116,-130 1116,-78 994,-78"/>
</g>
<g id="clust4" class="cluster">
<title>cluster_AppModule_imports</title>
<polygon fill="none" stroke="black" points="554,-78 554,-130 986,-130 986,-78 554,-78"/>
</g>
<g id="clust6" class="cluster">
<title>cluster_AppModule_bootstrap</title>
<polygon fill="none" stroke="black" points="689,-214 689,-266 813,-266 813,-214 689,-214"/>
</g>
<g id="clust7" class="cluster">
<title>cluster_AppModule_providers</title>
<polygon fill="none" stroke="black" points="16,-78 16,-130 546,-130 546,-78 16,-78"/>
</g>
<g id="clust8" class="cluster">
<title>cluster_ExploreContainerComponentModule</title>
<polygon fill="none" stroke="black" stroke-dasharray="1,5" points="1882,-70 1882,-274 2449,-274 2449,-70 1882,-70"/>
</g>
<g id="clust9" class="cluster">
<title>cluster_ExploreContainerComponentModule_declarations</title>
<polygon fill="none" stroke="black" points="1890,-78 1890,-130 2086,-130 2086,-78 1890,-78"/>
</g>
<g id="clust11" class="cluster">
<title>cluster_ExploreContainerComponentModule_imports</title>
<polygon fill="none" stroke="black" points="2094,-78 2094,-130 2441,-130 2441,-78 2094,-78"/>
</g>
<g id="clust12" class="cluster">
<title>cluster_ExploreContainerComponentModule_exports</title>
<polygon fill="none" stroke="black" points="2046,-214 2046,-266 2246,-266 2246,-214 2046,-214"/>
</g>
<g id="clust15" class="cluster">
<title>cluster_FilmDetailsPageModule</title>
<polygon fill="none" stroke="black" stroke-dasharray="1,5" points="2775,-70 2775,-198 3139,-198 3139,-70 2775,-70"/>
</g>
<g id="clust16" class="cluster">
<title>cluster_FilmDetailsPageModule_declarations</title>
<polygon fill="none" stroke="black" points="2783,-78 2783,-130 2909,-130 2909,-78 2783,-78"/>
</g>
<g id="clust18" class="cluster">
<title>cluster_FilmDetailsPageModule_imports</title>
<polygon fill="none" stroke="black" points="2917,-78 2917,-130 3131,-130 3131,-78 2917,-78"/>
</g>
<g id="clust22" class="cluster">
<title>cluster_FilmDetailsPageRoutingModule</title>
<polygon fill="none" stroke="black" stroke-dasharray="1,5" points="3767,-138 3767,-206 4107,-206 4107,-138 3767,-138"/>
</g>
<g id="clust24" class="cluster">
<title>cluster_FilmDetailsPageRoutingModule_imports</title>
<polygon fill="none" stroke="black" points="3901,-146 3901,-198 4099,-198 4099,-146 3901,-146"/>
</g>
<g id="clust25" class="cluster">
<title>cluster_FilmDetailsPageRoutingModule_exports</title>
<polygon fill="none" stroke="black" points="3775,-146 3775,-198 3893,-198 3893,-146 3775,-146"/>
</g>
<g id="clust28" class="cluster">
<title>cluster_FilmsPageModule</title>
<polygon fill="none" stroke="black" stroke-dasharray="1,5" points="3147,-70 3147,-198 3443,-198 3443,-70 3147,-70"/>
</g>
<g id="clust29" class="cluster">
<title>cluster_FilmsPageModule_declarations</title>
<polygon fill="none" stroke="black" points="3155,-78 3155,-130 3247,-130 3247,-78 3155,-78"/>
</g>
<g id="clust31" class="cluster">
<title>cluster_FilmsPageModule_imports</title>
<polygon fill="none" stroke="black" points="3255,-78 3255,-130 3435,-130 3435,-78 3255,-78"/>
</g>
<g id="clust41" class="cluster">
<title>cluster_PeoplePageModule</title>
<polygon fill="none" stroke="black" stroke-dasharray="1,5" points="3451,-70 3451,-198 3759,-198 3759,-70 3451,-70"/>
</g>
<g id="clust42" class="cluster">
<title>cluster_PeoplePageModule_declarations</title>
<polygon fill="none" stroke="black" points="3459,-78 3459,-130 3557,-130 3557,-78 3459,-78"/>
</g>
<g id="clust44" class="cluster">
<title>cluster_PeoplePageModule_imports</title>
<polygon fill="none" stroke="black" points="3565,-78 3565,-130 3751,-130 3751,-78 3565,-78"/>
</g>
<g id="clust54" class="cluster">
<title>cluster_PlanetsPageModule</title>
<polygon fill="none" stroke="black" stroke-dasharray="1,5" points="4115,-70 4115,-198 4427,-198 4427,-70 4115,-70"/>
</g>
<g id="clust55" class="cluster">
<title>cluster_PlanetsPageModule_declarations</title>
<polygon fill="none" stroke="black" points="4319,-78 4319,-130 4419,-130 4419,-78 4319,-78"/>
</g>
<g id="clust57" class="cluster">
<title>cluster_PlanetsPageModule_imports</title>
<polygon fill="none" stroke="black" points="4123,-78 4123,-130 4311,-130 4311,-78 4123,-78"/>
</g>
<g id="clust67" class="cluster">
<title>cluster_Tab1PageModule</title>
<polygon fill="none" stroke="black" stroke-dasharray="1,5" points="1230,-138 1230,-266 1518,-266 1518,-138 1230,-138"/>
</g>
<g id="clust68" class="cluster">
<title>cluster_Tab1PageModule_declarations</title>
<polygon fill="none" stroke="black" points="1422,-146 1422,-198 1510,-198 1510,-146 1422,-146"/>
</g>
<g id="clust70" class="cluster">
<title>cluster_Tab1PageModule_imports</title>
<polygon fill="none" stroke="black" points="1238,-146 1238,-198 1414,-198 1414,-146 1238,-146"/>
</g>
<g id="clust74" class="cluster">
<title>cluster_Tab2PageModule</title>
<polygon fill="none" stroke="black" stroke-dasharray="1,5" points="1586,-138 1586,-266 1874,-266 1874,-138 1586,-138"/>
</g>
<g id="clust75" class="cluster">
<title>cluster_Tab2PageModule_declarations</title>
<polygon fill="none" stroke="black" points="1778,-146 1778,-198 1866,-198 1866,-146 1778,-146"/>
</g>
<g id="clust77" class="cluster">
<title>cluster_Tab2PageModule_imports</title>
<polygon fill="none" stroke="black" points="1594,-146 1594,-198 1770,-198 1770,-146 1594,-146"/>
</g>
<g id="clust81" class="cluster">
<title>cluster_Tab3PageModule</title>
<polygon fill="none" stroke="black" stroke-dasharray="1,5" points="2457,-138 2457,-266 2745,-266 2745,-138 2457,-138"/>
</g>
<g id="clust82" class="cluster">
<title>cluster_Tab3PageModule_declarations</title>
<polygon fill="none" stroke="black" points="2649,-146 2649,-198 2737,-198 2737,-146 2649,-146"/>
</g>
<g id="clust84" class="cluster">
<title>cluster_Tab3PageModule_imports</title>
<polygon fill="none" stroke="black" points="2465,-146 2465,-198 2641,-198 2641,-146 2465,-146"/>
</g>
<g id="clust88" class="cluster">
<title>cluster_TabsPageModule</title>
<polygon fill="none" stroke="black" stroke-dasharray="1,5" points="4435,-70 4435,-198 4721,-198 4721,-70 4435,-70"/>
</g>
<g id="clust89" class="cluster">
<title>cluster_TabsPageModule_declarations</title>
<polygon fill="none" stroke="black" points="4627,-78 4627,-130 4713,-130 4713,-78 4627,-78"/>
</g>
<g id="clust91" class="cluster">
<title>cluster_TabsPageModule_imports</title>
<polygon fill="none" stroke="black" points="4443,-78 4443,-130 4619,-130 4619,-78 4443,-78"/>
</g>
<!-- AppComponent -->
<g id="node1" class="node">
<title>AppComponent</title>
<polygon fill="#ffffb3" stroke="black" points="1107.94,-122 1002.06,-122 1002.06,-86 1107.94,-86 1107.94,-122"/>
<text text-anchor="middle" x="1055" y="-99.8" font-family="Times,serif" font-size="14.00">AppComponent</text>
</g>
<!-- AppModule -->
<g id="node2" class="node">
<title>AppModule</title>
<polygon fill="#8dd3c7" stroke="black" points="792.66,-190 789.66,-194 768.66,-194 765.66,-190 709.34,-190 709.34,-154 792.66,-154 792.66,-190"/>
<text text-anchor="middle" x="751" y="-167.8" font-family="Times,serif" font-size="14.00">AppModule</text>
</g>
<!-- AppComponent&#45;&gt;AppModule -->
<g id="edge1" class="edge">
<title>AppComponent&#45;&gt;AppModule</title>
<path fill="none" stroke="black" d="M1055,-122.29C1055,-144.21 1055,-178 1055,-178 1055,-178 802.95,-178 802.95,-178"/>
<polygon fill="black" stroke="black" points="802.95,-174.5 792.95,-178 802.95,-181.5 802.95,-174.5"/>
</g>
<!-- AppComponent  -->
<g id="node6" class="node">
<title>AppComponent </title>
<polygon fill="#80b1d3" stroke="black" points="805.44,-258 696.56,-258 696.56,-222 805.44,-222 805.44,-258"/>
<text text-anchor="middle" x="751" y="-235.8" font-family="Times,serif" font-size="14.00">AppComponent </text>
</g>
<!-- AppModule&#45;&gt;AppComponent  -->
<g id="edge5" class="edge">
<title>AppModule&#45;&gt;AppComponent </title>
<path fill="none" stroke="black" stroke-dasharray="1,5" d="M751,-190.22C751,-190.22 751,-211.73 751,-211.73"/>
<polygon fill="black" stroke="black" points="747.5,-211.73 751,-221.73 754.5,-211.73 747.5,-211.73"/>
</g>
<!-- BrowserModule -->
<g id="node3" class="node">
<title>BrowserModule</title>
<polygon fill="#8dd3c7" stroke="black" points="668.47,-122 665.47,-126 644.47,-126 641.47,-122 561.53,-122 561.53,-86 668.47,-86 668.47,-122"/>
<text text-anchor="middle" x="615" y="-99.8" font-family="Times,serif" font-size="14.00">BrowserModule</text>
</g>
<!-- BrowserModule&#45;&gt;AppModule -->
<g id="edge2" class="edge">
<title>BrowserModule&#45;&gt;AppModule</title>
<path fill="none" stroke="black" d="M615,-122.27C615,-140.56 615,-166 615,-166 615,-166 699.09,-166 699.09,-166"/>
<polygon fill="black" stroke="black" points="699.09,-169.5 709.09,-166 699.09,-162.5 699.09,-169.5"/>
</g>
<!-- IonicModule.forRoot() -->
<g id="node4" class="node">
<title>IonicModule.forRoot()</title>
<polygon fill="#8dd3c7" stroke="black" points="978.19,-122 975.19,-126 954.19,-126 951.19,-122 833.81,-122 833.81,-86 978.19,-86 978.19,-122"/>
<text text-anchor="middle" x="906" y="-99.8" font-family="Times,serif" font-size="14.00">IonicModule.forRoot()</text>
</g>
<!-- IonicModule.forRoot()&#45;&gt;AppModule -->
<g id="edge3" class="edge">
<title>IonicModule.forRoot()&#45;&gt;AppModule</title>
<path fill="none" stroke="black" d="M906,-122.27C906,-140.56 906,-166 906,-166 906,-166 802.95,-166 802.95,-166"/>
<polygon fill="black" stroke="black" points="802.95,-162.5 792.95,-166 802.95,-169.5 802.95,-162.5"/>
</g>
<!-- AppRoutingModule -->
<g id="node5" class="node">
<title>AppRoutingModule</title>
<polygon fill="#8dd3c7" stroke="black" points="815.27,-122 812.27,-126 791.27,-126 788.27,-122 686.73,-122 686.73,-86 815.27,-86 815.27,-122"/>
<text text-anchor="middle" x="751" y="-99.8" font-family="Times,serif" font-size="14.00">AppRoutingModule</text>
</g>
<!-- AppRoutingModule&#45;&gt;AppModule -->
<g id="edge4" class="edge">
<title>AppRoutingModule&#45;&gt;AppModule</title>
<path fill="none" stroke="black" d="M751,-122.22C751,-122.22 751,-143.73 751,-143.73"/>
<polygon fill="black" stroke="black" points="747.5,-143.73 751,-153.73 754.5,-143.73 747.5,-143.73"/>
</g>
<!-- { provide: RouteReuseStrategy, useClass: IonicRouteStrategy } -->
<g id="node7" class="node">
<title>{ provide: RouteReuseStrategy, useClass: IonicRouteStrategy }</title>
<ellipse fill="#fdb462" stroke="black" cx="281" cy="-104" rx="257.27" ry="18"/>
<text text-anchor="middle" x="281" y="-99.8" font-family="Times,serif" font-size="14.00">{ provide: RouteReuseStrategy, useClass: IonicRouteStrategy }</text>
</g>
<!-- { provide: RouteReuseStrategy, useClass: IonicRouteStrategy }&#45;&gt;AppModule -->
<g id="edge6" class="edge">
<title>{ provide: RouteReuseStrategy, useClass: IonicRouteStrategy }&#45;&gt;AppModule</title>
<path fill="none" stroke="black" d="M281,-122.29C281,-144.21 281,-178 281,-178 281,-178 699.29,-178 699.29,-178"/>
<polygon fill="black" stroke="black" points="699.29,-181.5 709.29,-178 699.29,-174.5 699.29,-181.5"/>
</g>
<!-- ExploreContainerComponent -->
<g id="node8" class="node">
<title>ExploreContainerComponent</title>
<polygon fill="#ffffb3" stroke="black" points="2078.36,-122 1897.64,-122 1897.64,-86 2078.36,-86 2078.36,-122"/>
<text text-anchor="middle" x="1988" y="-99.8" font-family="Times,serif" font-size="14.00">ExploreContainerComponent</text>
</g>
<!-- ExploreContainerComponentModule -->
<g id="node9" class="node">
<title>ExploreContainerComponentModule</title>
<polygon fill="#8dd3c7" stroke="black" points="2258.41,-190 2255.41,-194 2234.41,-194 2231.41,-190 2033.59,-190 2033.59,-154 2258.41,-154 2258.41,-190"/>
<text text-anchor="middle" x="2146" y="-167.8" font-family="Times,serif" font-size="14.00">ExploreContainerComponentModule</text>
</g>
<!-- ExploreContainerComponent&#45;&gt;ExploreContainerComponentModule -->
<g id="edge7" class="edge">
<title>ExploreContainerComponent&#45;&gt;ExploreContainerComponentModule</title>
<path fill="none" stroke="black" d="M2056.11,-122.22C2056.11,-122.22 2056.11,-143.73 2056.11,-143.73"/>
<polygon fill="black" stroke="black" points="2052.61,-143.73 2056.11,-153.73 2059.61,-143.73 2052.61,-143.73"/>
</g>
<!-- ExploreContainerComponent  -->
<g id="node13" class="node">
<title>ExploreContainerComponent </title>
<polygon fill="#fb8072" stroke="black" points="2238.36,-258 2053.64,-258 2053.64,-222 2238.36,-222 2238.36,-258"/>
<text text-anchor="middle" x="2146" y="-235.8" font-family="Times,serif" font-size="14.00">ExploreContainerComponent </text>
</g>
<!-- ExploreContainerComponentModule&#45;&gt;ExploreContainerComponent  -->
<g id="edge11" class="edge">
<title>ExploreContainerComponentModule&#45;&gt;ExploreContainerComponent </title>
<path fill="none" stroke="black" stroke-dasharray="5,2" d="M2146,-190.22C2146,-190.22 2146,-211.73 2146,-211.73"/>
<polygon fill="black" stroke="black" points="2142.5,-211.73 2146,-221.73 2149.5,-211.73 2142.5,-211.73"/>
</g>
<!-- Tab1PageModule -->
<g id="node29" class="node">
<title>Tab1PageModule</title>
<polygon fill="#8dd3c7" stroke="black" points="1368.53,-258 1365.53,-262 1344.53,-262 1341.53,-258 1253.47,-258 1253.47,-222 1368.53,-222 1368.53,-258"/>
<text text-anchor="middle" x="1311" y="-235.8" font-family="Times,serif" font-size="14.00">Tab1PageModule</text>
</g>
<!-- ExploreContainerComponentModule&#45;&gt;Tab1PageModule -->
<g id="edge44" class="edge">
<title>ExploreContainerComponentModule&#45;&gt;Tab1PageModule</title>
<path fill="none" stroke="black" d="M2040.47,-190.17C2040.47,-194.05 2040.47,-197 2040.47,-197 2040.47,-197 1299.45,-197 1299.45,-197 1299.45,-197 1299.45,-211.51 1299.45,-211.51"/>
<polygon fill="black" stroke="black" points="1295.95,-211.51 1299.45,-221.51 1302.95,-211.51 1295.95,-211.51"/>
</g>
<!-- Tab2PageModule -->
<g id="node32" class="node">
<title>Tab2PageModule</title>
<polygon fill="#8dd3c7" stroke="black" points="1802.53,-258 1799.53,-262 1778.53,-262 1775.53,-258 1687.47,-258 1687.47,-222 1802.53,-222 1802.53,-258"/>
<text text-anchor="middle" x="1745" y="-235.8" font-family="Times,serif" font-size="14.00">Tab2PageModule</text>
</g>
<!-- ExploreContainerComponentModule&#45;&gt;Tab2PageModule -->
<g id="edge50" class="edge">
<title>ExploreContainerComponentModule&#45;&gt;Tab2PageModule</title>
<path fill="none" stroke="black" d="M2047.15,-190.22C2047.15,-210.37 2047.15,-240 2047.15,-240 2047.15,-240 1812.54,-240 1812.54,-240"/>
<polygon fill="black" stroke="black" points="1812.54,-236.5 1802.54,-240 1812.54,-243.5 1812.54,-236.5"/>
</g>
<!-- Tab3PageModule -->
<g id="node35" class="node">
<title>Tab3PageModule</title>
<polygon fill="#8dd3c7" stroke="black" points="2595.53,-258 2592.53,-262 2571.53,-262 2568.53,-258 2480.47,-258 2480.47,-222 2595.53,-222 2595.53,-258"/>
<text text-anchor="middle" x="2538" y="-235.8" font-family="Times,serif" font-size="14.00">Tab3PageModule</text>
</g>
<!-- ExploreContainerComponentModule&#45;&gt;Tab3PageModule -->
<g id="edge56" class="edge">
<title>ExploreContainerComponentModule&#45;&gt;Tab3PageModule</title>
<path fill="none" stroke="black" d="M2248.19,-190.32C2248.19,-213.66 2248.19,-251 2248.19,-251 2248.19,-251 2470.4,-251 2470.4,-251"/>
<polygon fill="black" stroke="black" points="2470.4,-254.5 2480.4,-251 2470.4,-247.5 2470.4,-254.5"/>
</g>
<!-- CommonModule -->
<g id="node10" class="node">
<title>CommonModule</title>
<polygon fill="#8dd3c7" stroke="black" points="2432.67,-122 2429.67,-126 2408.67,-126 2405.67,-122 2321.33,-122 2321.33,-86 2432.67,-86 2432.67,-122"/>
<text text-anchor="middle" x="2377" y="-99.8" font-family="Times,serif" font-size="14.00">CommonModule</text>
</g>
<!-- CommonModule&#45;&gt;ExploreContainerComponentModule -->
<g id="edge8" class="edge">
<title>CommonModule&#45;&gt;ExploreContainerComponentModule</title>
<path fill="none" stroke="black" d="M2335.12,-122.22C2335.12,-142.37 2335.12,-172 2335.12,-172 2335.12,-172 2268.47,-172 2268.47,-172"/>
<polygon fill="black" stroke="black" points="2268.47,-168.5 2258.47,-172 2268.47,-175.5 2268.47,-168.5"/>
</g>
<!-- FilmDetailsPageModule -->
<g id="node15" class="node">
<title>FilmDetailsPageModule</title>
<polygon fill="#8dd3c7" stroke="black" points="2937.37,-190 2934.37,-194 2913.37,-194 2910.37,-190 2784.63,-190 2784.63,-154 2937.37,-154 2937.37,-190"/>
<text text-anchor="middle" x="2861" y="-167.8" font-family="Times,serif" font-size="14.00">FilmDetailsPageModule</text>
</g>
<!-- CommonModule&#45;&gt;FilmDetailsPageModule -->
<g id="edge13" class="edge">
<title>CommonModule&#45;&gt;FilmDetailsPageModule</title>
<path fill="none" stroke="black" d="M2433.04,-104C2538.68,-104 2756.78,-104 2756.78,-104 2756.78,-104 2756.78,-172 2756.78,-172 2756.78,-172 2774.43,-172 2774.43,-172"/>
<polygon fill="black" stroke="black" points="2774.43,-175.5 2784.43,-172 2774.43,-168.5 2774.43,-175.5"/>
</g>
<!-- FilmsPageModule -->
<g id="node20" class="node">
<title>FilmsPageModule</title>
<polygon fill="#8dd3c7" stroke="black" points="3273.16,-190 3270.16,-194 3249.16,-194 3246.16,-190 3154.84,-190 3154.84,-154 3273.16,-154 3273.16,-190"/>
<text text-anchor="middle" x="3214" y="-167.8" font-family="Times,serif" font-size="14.00">FilmsPageModule</text>
</g>
<!-- CommonModule&#45;&gt;FilmsPageModule -->
<g id="edge20" class="edge">
<title>CommonModule&#45;&gt;FilmsPageModule</title>
<path fill="none" stroke="black" d="M2363.04,-122.06C2363.04,-133.44 2363.04,-146 2363.04,-146 2363.04,-146 3160.52,-146 3160.52,-146 3160.52,-146 3160.52,-146.79 3160.52,-146.79"/>
<polygon fill="black" stroke="black" points="3157.02,-143.94 3160.52,-153.94 3164.02,-143.94 3157.02,-143.94"/>
</g>
<!-- PeoplePageModule -->
<g id="node23" class="node">
<title>PeoplePageModule</title>
<polygon fill="#8dd3c7" stroke="black" points="3583.36,-190 3580.36,-194 3559.36,-194 3556.36,-190 3458.64,-190 3458.64,-154 3583.36,-154 3583.36,-190"/>
<text text-anchor="middle" x="3521" y="-167.8" font-family="Times,serif" font-size="14.00">PeoplePageModule</text>
</g>
<!-- CommonModule&#45;&gt;PeoplePageModule -->
<g id="edge27" class="edge">
<title>CommonModule&#45;&gt;PeoplePageModule</title>
<path fill="none" stroke="black" d="M2377,-122.07C2377,-131.46 2377,-141 2377,-141 2377,-141 3516.13,-141 3516.13,-141 3516.13,-141 3516.13,-143.97 3516.13,-143.97"/>
<polygon fill="black" stroke="black" points="3512.63,-143.97 3516.13,-153.97 3519.63,-143.97 3512.63,-143.97"/>
</g>
<!-- PlanetsPageModule -->
<g id="node26" class="node">
<title>PlanetsPageModule</title>
<polygon fill="#8dd3c7" stroke="black" points="4250.7,-190 4247.7,-194 4226.7,-194 4223.7,-190 4123.3,-190 4123.3,-154 4250.7,-154 4250.7,-190"/>
<text text-anchor="middle" x="4187" y="-167.8" font-family="Times,serif" font-size="14.00">PlanetsPageModule</text>
</g>
<!-- CommonModule&#45;&gt;PlanetsPageModule -->
<g id="edge34" class="edge">
<title>CommonModule&#45;&gt;PlanetsPageModule</title>
<path fill="none" stroke="black" d="M2390.96,-122.16C2390.96,-127.04 2390.96,-131 2390.96,-131 2390.96,-131 4127.12,-131 4127.12,-131 4127.12,-131 4127.12,-143.9 4127.12,-143.9"/>
<polygon fill="black" stroke="black" points="4123.62,-143.9 4127.12,-153.9 4130.62,-143.9 4123.62,-143.9"/>
</g>
<!-- CommonModule&#45;&gt;Tab1PageModule -->
<g id="edge42" class="edge">
<title>CommonModule&#45;&gt;Tab1PageModule</title>
<path fill="none" stroke="black" d="M2349.08,-122.46C2349.08,-152.83 2349.08,-210 2349.08,-210 2349.08,-210 1345.66,-210 1345.66,-210 1345.66,-210 1345.66,-211.86 1345.66,-211.86"/>
<polygon fill="black" stroke="black" points="1342.16,-211.86 1345.66,-221.86 1349.16,-211.86 1342.16,-211.86"/>
</g>
<!-- CommonModule&#45;&gt;Tab2PageModule -->
<g id="edge48" class="edge">
<title>CommonModule&#45;&gt;Tab2PageModule</title>
<path fill="none" stroke="black" d="M2404.92,-122.49C2404.92,-154.31 2404.92,-216 2404.92,-216 2404.92,-216 1797.18,-216 1797.18,-216 1797.18,-216 1797.18,-216.58 1797.18,-216.58"/>
<polygon fill="black" stroke="black" points="1793.68,-211.81 1797.18,-221.81 1800.68,-211.81 1793.68,-211.81"/>
</g>
<!-- CommonModule&#45;&gt;Tab3PageModule -->
<g id="edge54" class="edge">
<title>CommonModule&#45;&gt;Tab3PageModule</title>
<path fill="none" stroke="black" d="M2418.88,-122.05C2418.88,-156.89 2418.88,-230 2418.88,-230 2418.88,-230 2470.18,-230 2470.18,-230"/>
<polygon fill="black" stroke="black" points="2470.18,-233.5 2480.18,-230 2470.18,-226.5 2470.18,-233.5"/>
</g>
<!-- TabsPageModule -->
<g id="node38" class="node">
<title>TabsPageModule</title>
<polygon fill="#8dd3c7" stroke="black" points="4556.97,-190 4553.97,-194 4532.97,-194 4529.97,-190 4443.03,-190 4443.03,-154 4556.97,-154 4556.97,-190"/>
<text text-anchor="middle" x="4500" y="-167.8" font-family="Times,serif" font-size="14.00">TabsPageModule</text>
</g>
<!-- CommonModule&#45;&gt;TabsPageModule -->
<g id="edge59" class="edge">
<title>CommonModule&#45;&gt;TabsPageModule</title>
<path fill="none" stroke="black" d="M2395.61,-85.86C2395.61,-79.54 2395.61,-74 2395.61,-74 2395.61,-74 4445.83,-74 4445.83,-74 4445.83,-74 4445.83,-143.57 4445.83,-143.57"/>
<polygon fill="black" stroke="black" points="4442.33,-143.57 4445.83,-153.57 4449.33,-143.57 4442.33,-143.57"/>
</g>
<!-- CommonModule&#45;&gt;TabsPageModule -->
<g id="edge65" class="edge">
<title>CommonModule&#45;&gt;TabsPageModule</title>
<path fill="none" stroke="black" d="M2358.39,-85.94C2358.39,-74.56 2358.39,-62 2358.39,-62 2358.39,-62 4448.64,-62 4448.64,-62 4448.64,-62 4448.64,-143.84 4448.64,-143.84"/>
<polygon fill="black" stroke="black" points="4445.14,-143.84 4448.64,-153.84 4452.14,-143.84 4445.14,-143.84"/>
</g>
<!-- FormsModule -->
<g id="node11" class="node">
<title>FormsModule</title>
<polygon fill="#8dd3c7" stroke="black" points="2303.83,-122 2300.83,-126 2279.83,-126 2276.83,-122 2208.17,-122 2208.17,-86 2303.83,-86 2303.83,-122"/>
<text text-anchor="middle" x="2256" y="-99.8" font-family="Times,serif" font-size="14.00">FormsModule</text>
</g>
<!-- FormsModule&#45;&gt;ExploreContainerComponentModule -->
<g id="edge9" class="edge">
<title>FormsModule&#45;&gt;ExploreContainerComponentModule</title>
<path fill="none" stroke="black" d="M2241.58,-122.22C2241.58,-122.22 2241.58,-143.73 2241.58,-143.73"/>
<polygon fill="black" stroke="black" points="2238.08,-143.73 2241.58,-153.73 2245.08,-143.73 2238.08,-143.73"/>
</g>
<!-- FormsModule&#45;&gt;FilmDetailsPageModule -->
<g id="edge14" class="edge">
<title>FormsModule&#45;&gt;FilmDetailsPageModule</title>
<path fill="none" stroke="black" d="M2267.3,-122.15C2267.3,-134.27 2267.3,-148 2267.3,-148 2267.3,-148 2846,-148 2846,-148 2846,-148 2846,-148.58 2846,-148.58"/>
<polygon fill="black" stroke="black" points="2842.5,-143.81 2846,-153.81 2849.5,-143.81 2842.5,-143.81"/>
</g>
<!-- FormsModule&#45;&gt;FilmsPageModule -->
<g id="edge21" class="edge">
<title>FormsModule&#45;&gt;FilmsPageModule</title>
<path fill="none" stroke="black" d="M2271.84,-122.49C2271.84,-134.14 2271.84,-147 2271.84,-147 2271.84,-147 3157.59,-147 3157.59,-147 3157.59,-147 3157.59,-147.68 3157.59,-147.68"/>
<polygon fill="black" stroke="black" points="3154.09,-143.83 3157.59,-153.83 3161.09,-143.83 3154.09,-143.83"/>
</g>
<!-- FormsModule&#45;&gt;PeoplePageModule -->
<g id="edge28" class="edge">
<title>FormsModule&#45;&gt;PeoplePageModule</title>
<path fill="none" stroke="black" d="M2276.39,-122.11C2276.39,-131.9 2276.39,-142 2276.39,-142 2276.39,-142 3499.87,-142 3499.87,-142 3499.87,-142 3499.87,-143.86 3499.87,-143.86"/>
<polygon fill="black" stroke="black" points="3496.37,-143.86 3499.87,-153.86 3503.37,-143.86 3496.37,-143.86"/>
</g>
<!-- FormsModule&#45;&gt;PlanetsPageModule -->
<g id="edge35" class="edge">
<title>FormsModule&#45;&gt;PlanetsPageModule</title>
<path fill="none" stroke="black" d="M2280.93,-122.17C2280.93,-126.05 2280.93,-129 2280.93,-129 2280.93,-129 4190.72,-129 4190.72,-129 4190.72,-129 4190.72,-143.51 4190.72,-143.51"/>
<polygon fill="black" stroke="black" points="4187.22,-143.51 4190.72,-153.51 4194.22,-143.51 4187.22,-143.51"/>
</g>
<!-- FormsModule&#45;&gt;Tab1PageModule -->
<g id="edge43" class="edge">
<title>FormsModule&#45;&gt;Tab1PageModule</title>
<path fill="none" stroke="black" d="M2294.57,-122.16C2294.57,-150.74 2294.57,-203 2294.57,-203 2294.57,-203 1322.55,-203 1322.55,-203 1322.55,-203 1322.55,-211.93 1322.55,-211.93"/>
<polygon fill="black" stroke="black" points="1319.05,-211.93 1322.55,-221.93 1326.05,-211.93 1319.05,-211.93"/>
</g>
<!-- FormsModule&#45;&gt;Tab2PageModule -->
<g id="edge49" class="edge">
<title>FormsModule&#45;&gt;Tab2PageModule</title>
<path fill="none" stroke="black" d="M2224.96,-122.15C2224.96,-135.74 2224.96,-152 2224.96,-152 2224.96,-152 1778.11,-152 1778.11,-152 1778.11,-152 1778.11,-211.77 1778.11,-211.77"/>
<polygon fill="black" stroke="black" points="1774.61,-211.77 1778.11,-221.77 1781.61,-211.77 1774.61,-211.77"/>
</g>
<!-- FormsModule&#45;&gt;Tab3PageModule -->
<g id="edge55" class="edge">
<title>FormsModule&#45;&gt;Tab3PageModule</title>
<path fill="none" stroke="black" d="M2299.12,-122.21C2299.12,-158.64 2299.12,-237 2299.12,-237 2299.12,-237 2470.17,-237 2470.17,-237"/>
<polygon fill="black" stroke="black" points="2470.17,-240.5 2480.17,-237 2470.17,-233.5 2470.17,-240.5"/>
</g>
<!-- FormsModule&#45;&gt;TabsPageModule -->
<g id="edge60" class="edge">
<title>FormsModule&#45;&gt;TabsPageModule</title>
<path fill="none" stroke="black" d="M2285.48,-122.08C2285.48,-123.85 2285.48,-125 2285.48,-125 2285.48,-125 4486.63,-125 4486.63,-125 4486.63,-125 4486.63,-143.96 4486.63,-143.96"/>
<polygon fill="black" stroke="black" points="4483.13,-143.96 4486.63,-153.96 4490.13,-143.96 4483.13,-143.96"/>
</g>
<!-- FormsModule&#45;&gt;TabsPageModule -->
<g id="edge66" class="edge">
<title>FormsModule&#45;&gt;TabsPageModule</title>
<path fill="none" stroke="black" d="M2290.03,-122.15C2290.03,-123.3 2290.03,-124 2290.03,-124 2290.03,-124 4498.36,-124 4498.36,-124 4498.36,-124 4498.36,-143.85 4498.36,-143.85"/>
<polygon fill="black" stroke="black" points="4494.86,-143.85 4498.36,-153.85 4501.86,-143.85 4494.86,-143.85"/>
</g>
<!-- IonicModule -->
<g id="node12" class="node">
<title>IonicModule</title>
<polygon fill="#8dd3c7" stroke="black" points="2190.32,-122 2187.32,-126 2166.32,-126 2163.32,-122 2101.68,-122 2101.68,-86 2190.32,-86 2190.32,-122"/>
<text text-anchor="middle" x="2146" y="-99.8" font-family="Times,serif" font-size="14.00">IonicModule</text>
</g>
<!-- IonicModule&#45;&gt;ExploreContainerComponentModule -->
<g id="edge10" class="edge">
<title>IonicModule&#45;&gt;ExploreContainerComponentModule</title>
<path fill="none" stroke="black" d="M2125.93,-122.22C2125.93,-122.22 2125.93,-143.73 2125.93,-143.73"/>
<polygon fill="black" stroke="black" points="2122.43,-143.73 2125.93,-153.73 2129.43,-143.73 2122.43,-143.73"/>
</g>
<!-- IonicModule&#45;&gt;FilmDetailsPageModule -->
<g id="edge15" class="edge">
<title>IonicModule&#45;&gt;FilmDetailsPageModule</title>
<path fill="none" stroke="black" d="M2141.99,-122.18C2141.99,-135.04 2141.99,-150 2141.99,-150 2141.99,-150 2818.67,-150 2818.67,-150 2818.67,-150 2818.67,-150.38 2818.67,-150.38"/>
<polygon fill="black" stroke="black" points="2815.17,-143.83 2818.67,-153.83 2822.17,-143.83 2815.17,-143.83"/>
</g>
<!-- IonicModule&#45;&gt;FilmsPageModule -->
<g id="edge22" class="edge">
<title>IonicModule&#45;&gt;FilmsPageModule</title>
<path fill="none" stroke="black" d="M2150.01,-122.1C2150.01,-133.09 2150.01,-145 2150.01,-145 2150.01,-145 3188.48,-145 3188.48,-145 3188.48,-145 3188.48,-145.88 3188.48,-145.88"/>
<polygon fill="black" stroke="black" points="3184.98,-143.84 3188.48,-153.84 3191.98,-143.84 3184.98,-143.84"/>
</g>
<!-- IonicModule&#45;&gt;PeoplePageModule -->
<g id="edge29" class="edge">
<title>IonicModule&#45;&gt;PeoplePageModule</title>
<path fill="none" stroke="black" d="M2158.04,-122.13C2158.04,-132.31 2158.04,-143 2158.04,-143 2158.04,-143 3483.61,-143 3483.61,-143 3483.61,-143 3483.61,-144.08 3483.61,-144.08"/>
<polygon fill="black" stroke="black" points="3480.11,-143.8 3483.61,-153.8 3487.11,-143.8 3480.11,-143.8"/>
</g>
<!-- IonicModule&#45;&gt;PlanetsPageModule -->
<g id="edge36" class="edge">
<title>IonicModule&#45;&gt;PlanetsPageModule</title>
<path fill="none" stroke="black" d="M2166.07,-122.06C2166.07,-126.49 2166.07,-130 2166.07,-130 2166.07,-130 4160.78,-130 4160.78,-130 4160.78,-130 4160.78,-143.94 4160.78,-143.94"/>
<polygon fill="black" stroke="black" points="4157.28,-143.94 4160.78,-153.94 4164.28,-143.94 4157.28,-143.94"/>
</g>
<!-- IonicModule&#45;&gt;Tab1PageModule -->
<g id="edge41" class="edge">
<title>IonicModule&#45;&gt;Tab1PageModule</title>
<path fill="none" stroke="black" d="M2109.87,-122.21C2109.87,-127.55 2109.87,-132 2109.87,-132 2109.87,-132 1551.83,-132 1551.83,-132 1551.83,-132 1551.83,-246 1551.83,-246 1551.83,-246 1378.69,-246 1378.69,-246"/>
<polygon fill="black" stroke="black" points="1378.69,-242.5 1368.69,-246 1378.69,-249.5 1378.69,-242.5"/>
</g>
<!-- IonicModule&#45;&gt;Tab2PageModule -->
<g id="edge47" class="edge">
<title>IonicModule&#45;&gt;Tab2PageModule</title>
<path fill="none" stroke="black" d="M2117.9,-122.04C2117.9,-135.29 2117.9,-151 2117.9,-151 2117.9,-151 1770.22,-151 1770.22,-151 1770.22,-151 1770.22,-211.99 1770.22,-211.99"/>
<polygon fill="black" stroke="black" points="1766.72,-211.99 1770.22,-221.99 1773.72,-211.99 1766.72,-211.99"/>
</g>
<!-- IonicModule&#45;&gt;Tab3PageModule -->
<g id="edge53" class="edge">
<title>IonicModule&#45;&gt;Tab3PageModule</title>
<path fill="none" stroke="black" d="M2133.96,-122.25C2133.96,-136.18 2133.96,-153 2133.96,-153 2133.96,-153 2262.75,-153 2262.75,-153 2262.75,-153 2262.75,-244 2262.75,-244 2262.75,-244 2470.3,-244 2470.3,-244"/>
<polygon fill="black" stroke="black" points="2470.3,-247.5 2480.3,-244 2470.3,-240.5 2470.3,-247.5"/>
</g>
<!-- IonicModule&#45;&gt;TabsPageModule -->
<g id="edge61" class="edge">
<title>IonicModule&#45;&gt;TabsPageModule</title>
<path fill="none" stroke="black" d="M2182.13,-122.17C2182.13,-124.45 2182.13,-126 2182.13,-126 2182.13,-126 4474.91,-126 4474.91,-126 4474.91,-126 4474.91,-143.82 4474.91,-143.82"/>
<polygon fill="black" stroke="black" points="4471.41,-143.82 4474.91,-153.82 4478.41,-143.82 4471.41,-143.82"/>
</g>
<!-- IonicModule&#45;&gt;TabsPageModule -->
<g id="edge64" class="edge">
<title>IonicModule&#45;&gt;TabsPageModule</title>
<path fill="none" stroke="black" d="M2174.1,-122.12C2174.1,-124.97 2174.1,-127 2174.1,-127 2174.1,-127 4463.18,-127 4463.18,-127 4463.18,-127 4463.18,-143.96 4463.18,-143.96"/>
<polygon fill="black" stroke="black" points="4459.68,-143.96 4463.18,-153.96 4466.68,-143.96 4459.68,-143.96"/>
</g>
<!-- FilmDetailsPage -->
<g id="node14" class="node">
<title>FilmDetailsPage</title>
<polygon fill="#ffffb3" stroke="black" points="2900.82,-122 2791.18,-122 2791.18,-86 2900.82,-86 2900.82,-122"/>
<text text-anchor="middle" x="2846" y="-99.8" font-family="Times,serif" font-size="14.00">FilmDetailsPage</text>
</g>
<!-- FilmDetailsPage&#45;&gt;FilmDetailsPageModule -->
<g id="edge12" class="edge">
<title>FilmDetailsPage&#45;&gt;FilmDetailsPageModule</title>
<path fill="none" stroke="black" d="M2873.33,-122.22C2873.33,-122.22 2873.33,-143.73 2873.33,-143.73"/>
<polygon fill="black" stroke="black" points="2869.83,-143.73 2873.33,-153.73 2876.83,-143.73 2869.83,-143.73"/>
</g>
<!-- FilmDetailsPageRoutingModule -->
<g id="node16" class="node">
<title>FilmDetailsPageRoutingModule</title>
<polygon fill="#8dd3c7" stroke="black" points="3122.99,-122 3119.99,-126 3098.99,-126 3095.99,-122 2925.01,-122 2925.01,-86 3122.99,-86 3122.99,-122"/>
<text text-anchor="middle" x="3024" y="-99.8" font-family="Times,serif" font-size="14.00">FilmDetailsPageRoutingModule</text>
</g>
<!-- FilmDetailsPageRoutingModule&#45;&gt;FilmDetailsPageModule -->
<g id="edge16" class="edge">
<title>FilmDetailsPageRoutingModule&#45;&gt;FilmDetailsPageModule</title>
<path fill="none" stroke="black" d="M2931.22,-122.22C2931.22,-122.22 2931.22,-143.73 2931.22,-143.73"/>
<polygon fill="black" stroke="black" points="2927.72,-143.73 2931.22,-153.73 2934.72,-143.73 2927.72,-143.73"/>
</g>
<!-- RouterModule  -->
<g id="node18" class="node">
<title>RouterModule </title>
<polygon fill="#fb8072" stroke="black" points="3884.65,-190 3783.35,-190 3783.35,-154 3884.65,-154 3884.65,-190"/>
<text text-anchor="middle" x="3834" y="-167.8" font-family="Times,serif" font-size="14.00">RouterModule </text>
</g>
<!-- FilmDetailsPageRoutingModule&#45;&gt;RouterModule  -->
<g id="edge18" class="edge">
<title>FilmDetailsPageRoutingModule&#45;&gt;RouterModule </title>
<path fill="none" stroke="black" stroke-dasharray="5,2" d="M3061.14,-122.42C3061.14,-131.28 3061.14,-140 3061.14,-140 3061.14,-140 3800.28,-140 3800.28,-140 3800.28,-140 3800.28,-143.76 3800.28,-143.76"/>
<polygon fill="black" stroke="black" points="3796.78,-143.76 3800.28,-153.76 3803.78,-143.76 3796.78,-143.76"/>
</g>
<!-- RouterModule.forChild(args) -->
<g id="node17" class="node">
<title>RouterModule.forChild(args)</title>
<polygon fill="#8dd3c7" stroke="black" points="4090.73,-190 4087.73,-194 4066.73,-194 4063.73,-190 3909.27,-190 3909.27,-154 4090.73,-154 4090.73,-190"/>
<text text-anchor="middle" x="4000" y="-167.8" font-family="Times,serif" font-size="14.00">RouterModule.forChild(args)</text>
</g>
<!-- RouterModule.forChild(args)&#45;&gt;FilmDetailsPageRoutingModule -->
<g id="edge17" class="edge">
<title>RouterModule.forChild(args)&#45;&gt;FilmDetailsPageRoutingModule</title>
<path fill="none" stroke="black" d="M4000,-153.58C4000,-144.72 4000,-136 4000,-136 4000,-136 2999.29,-136 2999.29,-136 2999.29,-136 2999.29,-132.24 2999.29,-132.24"/>
<polygon fill="black" stroke="black" points="3002.79,-132.24 2999.29,-122.24 2995.79,-132.24 3002.79,-132.24"/>
</g>
<!-- FilmsPageRoutingModule -->
<g id="node21" class="node">
<title>FilmsPageRoutingModule</title>
<polygon fill="#8dd3c7" stroke="black" points="3426.78,-122 3423.78,-126 3402.78,-126 3399.78,-122 3263.22,-122 3263.22,-86 3426.78,-86 3426.78,-122"/>
<text text-anchor="middle" x="3345" y="-99.8" font-family="Times,serif" font-size="14.00">FilmsPageRoutingModule</text>
</g>
<!-- RouterModule.forChild(args)&#45;&gt;FilmsPageRoutingModule -->
<g id="edge24" class="edge">
<title>RouterModule.forChild(args)&#45;&gt;FilmsPageRoutingModule</title>
<path fill="none" stroke="black" d="M4030.21,-153.93C4030.21,-144.54 4030.21,-135 4030.21,-135 4030.21,-135 3324.52,-135 3324.52,-135 3324.52,-135 3324.52,-132.03 3324.52,-132.03"/>
<polygon fill="black" stroke="black" points="3328.02,-132.03 3324.52,-122.03 3321.02,-132.03 3328.02,-132.03"/>
</g>
<!-- PeoplePageRoutingModule -->
<g id="node24" class="node">
<title>PeoplePageRoutingModule</title>
<polygon fill="#8dd3c7" stroke="black" points="3742.98,-122 3739.98,-126 3718.98,-126 3715.98,-122 3573.02,-122 3573.02,-86 3742.98,-86 3742.98,-122"/>
<text text-anchor="middle" x="3658" y="-99.8" font-family="Times,serif" font-size="14.00">PeoplePageRoutingModule</text>
</g>
<!-- RouterModule.forChild(args)&#45;&gt;PeoplePageRoutingModule -->
<g id="edge31" class="edge">
<title>RouterModule.forChild(args)&#45;&gt;PeoplePageRoutingModule</title>
<path fill="none" stroke="black" d="M3939.59,-153.72C3939.59,-132.68 3939.59,-101 3939.59,-101 3939.59,-101 3753.25,-101 3753.25,-101"/>
<polygon fill="black" stroke="black" points="3753.25,-97.5 3743.25,-101 3753.25,-104.5 3753.25,-97.5"/>
</g>
<!-- PlanetsPageRoutingModule -->
<g id="node27" class="node">
<title>PlanetsPageRoutingModule</title>
<polygon fill="#8dd3c7" stroke="black" points="4303.32,-122 4300.32,-126 4279.32,-126 4276.32,-122 4130.68,-122 4130.68,-86 4303.32,-86 4303.32,-122"/>
<text text-anchor="middle" x="4217" y="-99.8" font-family="Times,serif" font-size="14.00">PlanetsPageRoutingModule</text>
</g>
<!-- RouterModule.forChild(args)&#45;&gt;PlanetsPageRoutingModule -->
<g id="edge38" class="edge">
<title>RouterModule.forChild(args)&#45;&gt;PlanetsPageRoutingModule</title>
<path fill="none" stroke="black" d="M3969.79,-153.83C3969.79,-134.91 3969.79,-108 3969.79,-108 3969.79,-108 4120.54,-108 4120.54,-108"/>
<polygon fill="black" stroke="black" points="4120.54,-111.5 4130.54,-108 4120.54,-104.5 4120.54,-111.5"/>
</g>
<!-- TabsPageRoutingModule -->
<g id="node39" class="node">
<title>TabsPageRoutingModule</title>
<polygon fill="#8dd3c7" stroke="black" points="4610.59,-122 4607.59,-126 4586.59,-126 4583.59,-122 4451.41,-122 4451.41,-86 4610.59,-86 4610.59,-122"/>
<text text-anchor="middle" x="4531" y="-99.8" font-family="Times,serif" font-size="14.00">TabsPageRoutingModule</text>
</g>
<!-- RouterModule.forChild(args)&#45;&gt;TabsPageRoutingModule -->
<g id="edge68" class="edge">
<title>RouterModule.forChild(args)&#45;&gt;TabsPageRoutingModule</title>
<path fill="none" stroke="black" d="M4060.41,-153.68C4060.41,-145.21 4060.41,-137 4060.41,-137 4060.41,-137 4521.81,-137 4521.81,-137 4521.81,-137 4521.81,-132.04 4521.81,-132.04"/>
<polygon fill="black" stroke="black" points="4525.31,-132.04 4521.81,-122.04 4518.31,-132.04 4525.31,-132.04"/>
</g>
<!-- FilmsPage -->
<g id="node19" class="node">
<title>FilmsPage</title>
<polygon fill="#ffffb3" stroke="black" points="3238.61,-122 3163.39,-122 3163.39,-86 3238.61,-86 3238.61,-122"/>
<text text-anchor="middle" x="3201" y="-99.8" font-family="Times,serif" font-size="14.00">FilmsPage</text>
</g>
<!-- FilmsPage&#45;&gt;FilmsPageModule -->
<g id="edge19" class="edge">
<title>FilmsPage&#45;&gt;FilmsPageModule</title>
<path fill="none" stroke="black" d="M3213.52,-122.22C3213.52,-122.22 3213.52,-143.73 3213.52,-143.73"/>
<polygon fill="black" stroke="black" points="3210.02,-143.73 3213.52,-153.73 3217.02,-143.73 3210.02,-143.73"/>
</g>
<!-- FilmsPageRoutingModule&#45;&gt;RouterModule  -->
<g id="edge25" class="edge">
<title>FilmsPageRoutingModule&#45;&gt;RouterModule </title>
<path fill="none" stroke="black" stroke-dasharray="5,2" d="M3375.7,-122.19C3375.7,-130.28 3375.7,-138 3375.7,-138 3375.7,-138 3817.14,-138 3817.14,-138 3817.14,-138 3817.14,-143.81 3817.14,-143.81"/>
<polygon fill="black" stroke="black" points="3813.64,-143.81 3817.14,-153.81 3820.64,-143.81 3813.64,-143.81"/>
</g>
<!-- FilmsPageRoutingModule&#45;&gt;FilmsPageModule -->
<g id="edge23" class="edge">
<title>FilmsPageRoutingModule&#45;&gt;FilmsPageModule</title>
<path fill="none" stroke="black" d="M3268.22,-122.22C3268.22,-122.22 3268.22,-143.73 3268.22,-143.73"/>
<polygon fill="black" stroke="black" points="3264.72,-143.73 3268.22,-153.73 3271.72,-143.73 3264.72,-143.73"/>
</g>
<!-- PeoplePage -->
<g id="node22" class="node">
<title>PeoplePage</title>
<polygon fill="#ffffb3" stroke="black" points="3548.81,-122 3467.19,-122 3467.19,-86 3548.81,-86 3548.81,-122"/>
<text text-anchor="middle" x="3508" y="-99.8" font-family="Times,serif" font-size="14.00">PeoplePage</text>
</g>
<!-- PeoplePage&#45;&gt;PeoplePageModule -->
<g id="edge26" class="edge">
<title>PeoplePage&#45;&gt;PeoplePageModule</title>
<path fill="none" stroke="black" d="M3532.39,-122.22C3532.39,-122.22 3532.39,-143.73 3532.39,-143.73"/>
<polygon fill="black" stroke="black" points="3528.89,-143.73 3532.39,-153.73 3535.89,-143.73 3528.89,-143.73"/>
</g>
<!-- PeoplePageRoutingModule&#45;&gt;RouterModule  -->
<g id="edge32" class="edge">
<title>PeoplePageRoutingModule&#45;&gt;RouterModule </title>
<path fill="none" stroke="black" stroke-dasharray="5,2" d="M3743.16,-115C3788.09,-115 3834,-115 3834,-115 3834,-115 3834,-143.96 3834,-143.96"/>
<polygon fill="black" stroke="black" points="3830.5,-143.96 3834,-153.96 3837.5,-143.96 3830.5,-143.96"/>
</g>
<!-- PeoplePageRoutingModule&#45;&gt;PeoplePageModule -->
<g id="edge30" class="edge">
<title>PeoplePageRoutingModule&#45;&gt;PeoplePageModule</title>
<path fill="none" stroke="black" d="M3578.22,-122.22C3578.22,-122.22 3578.22,-143.73 3578.22,-143.73"/>
<polygon fill="black" stroke="black" points="3574.72,-143.73 3578.22,-153.73 3581.72,-143.73 3574.72,-143.73"/>
</g>
<!-- PlanetsPage -->
<g id="node25" class="node">
<title>PlanetsPage</title>
<polygon fill="#ffffb3" stroke="black" points="4410.65,-122 4327.35,-122 4327.35,-86 4410.65,-86 4410.65,-122"/>
<text text-anchor="middle" x="4369" y="-99.8" font-family="Times,serif" font-size="14.00">PlanetsPage</text>
</g>
<!-- PlanetsPage&#45;&gt;PlanetsPageModule -->
<g id="edge33" class="edge">
<title>PlanetsPage&#45;&gt;PlanetsPageModule</title>
<path fill="none" stroke="black" d="M4369,-122.22C4369,-142.37 4369,-172 4369,-172 4369,-172 4260.65,-172 4260.65,-172"/>
<polygon fill="black" stroke="black" points="4260.65,-168.5 4250.65,-172 4260.65,-175.5 4260.65,-168.5"/>
</g>
<!-- PlanetsPageRoutingModule&#45;&gt;RouterModule  -->
<g id="edge39" class="edge">
<title>PlanetsPageRoutingModule&#45;&gt;RouterModule </title>
<path fill="none" stroke="black" stroke-dasharray="5,2" d="M4130.69,-94C4022.45,-94 3850.86,-94 3850.86,-94 3850.86,-94 3850.86,-143.91 3850.86,-143.91"/>
<polygon fill="black" stroke="black" points="3847.36,-143.91 3850.86,-153.91 3854.36,-143.91 3847.36,-143.91"/>
</g>
<!-- PlanetsPageRoutingModule&#45;&gt;PlanetsPageModule -->
<g id="edge37" class="edge">
<title>PlanetsPageRoutingModule&#45;&gt;PlanetsPageModule</title>
<path fill="none" stroke="black" d="M4220.66,-122.22C4220.66,-122.22 4220.66,-143.73 4220.66,-143.73"/>
<polygon fill="black" stroke="black" points="4217.16,-143.73 4220.66,-153.73 4224.16,-143.73 4217.16,-143.73"/>
</g>
<!-- Tab1Page -->
<g id="node28" class="node">
<title>Tab1Page</title>
<polygon fill="#ffffb3" stroke="black" points="1501.98,-190 1430.02,-190 1430.02,-154 1501.98,-154 1501.98,-190"/>
<text text-anchor="middle" x="1466" y="-167.8" font-family="Times,serif" font-size="14.00">Tab1Page</text>
</g>
<!-- Tab1Page&#45;&gt;Tab1PageModule -->
<g id="edge40" class="edge">
<title>Tab1Page&#45;&gt;Tab1PageModule</title>
<path fill="none" stroke="black" d="M1466,-190.27C1466,-208.56 1466,-234 1466,-234 1466,-234 1378.72,-234 1378.72,-234"/>
<polygon fill="black" stroke="black" points="1378.72,-230.5 1368.72,-234 1378.72,-237.5 1378.72,-230.5"/>
</g>
<!-- Tab1PageRoutingModule -->
<g id="node30" class="node">
<title>Tab1PageRoutingModule</title>
<polygon fill="#8dd3c7" stroke="black" points="1406.15,-190 1403.15,-194 1382.15,-194 1379.15,-190 1245.85,-190 1245.85,-154 1406.15,-154 1406.15,-190"/>
<text text-anchor="middle" x="1326" y="-167.8" font-family="Times,serif" font-size="14.00">Tab1PageRoutingModule</text>
</g>
<!-- Tab1PageRoutingModule&#45;&gt;Tab1PageModule -->
<g id="edge45" class="edge">
<title>Tab1PageRoutingModule&#45;&gt;Tab1PageModule</title>
<path fill="none" stroke="black" d="M1276.34,-190.22C1276.34,-190.22 1276.34,-211.73 1276.34,-211.73"/>
<polygon fill="black" stroke="black" points="1272.84,-211.73 1276.34,-221.73 1279.84,-211.73 1272.84,-211.73"/>
</g>
<!-- Tab2Page -->
<g id="node31" class="node">
<title>Tab2Page</title>
<polygon fill="#ffffb3" stroke="black" points="1857.98,-190 1786.02,-190 1786.02,-154 1857.98,-154 1857.98,-190"/>
<text text-anchor="middle" x="1822" y="-167.8" font-family="Times,serif" font-size="14.00">Tab2Page</text>
</g>
<!-- Tab2Page&#45;&gt;Tab2PageModule -->
<g id="edge46" class="edge">
<title>Tab2Page&#45;&gt;Tab2PageModule</title>
<path fill="none" stroke="black" d="M1791.6,-190.22C1791.6,-190.22 1791.6,-211.73 1791.6,-211.73"/>
<polygon fill="black" stroke="black" points="1788.1,-211.73 1791.6,-221.73 1795.1,-211.73 1788.1,-211.73"/>
</g>
<!-- Tab2PageRoutingModule -->
<g id="node33" class="node">
<title>Tab2PageRoutingModule</title>
<polygon fill="#8dd3c7" stroke="black" points="1762.15,-190 1759.15,-194 1738.15,-194 1735.15,-190 1601.85,-190 1601.85,-154 1762.15,-154 1762.15,-190"/>
<text text-anchor="middle" x="1682" y="-167.8" font-family="Times,serif" font-size="14.00">Tab2PageRoutingModule</text>
</g>
<!-- Tab2PageRoutingModule&#45;&gt;Tab2PageModule -->
<g id="edge51" class="edge">
<title>Tab2PageRoutingModule&#45;&gt;Tab2PageModule</title>
<path fill="none" stroke="black" d="M1724.78,-190.22C1724.78,-190.22 1724.78,-211.73 1724.78,-211.73"/>
<polygon fill="black" stroke="black" points="1721.28,-211.73 1724.78,-221.73 1728.28,-211.73 1721.28,-211.73"/>
</g>
<!-- Tab3Page -->
<g id="node34" class="node">
<title>Tab3Page</title>
<polygon fill="#ffffb3" stroke="black" points="2728.98,-190 2657.02,-190 2657.02,-154 2728.98,-154 2728.98,-190"/>
<text text-anchor="middle" x="2693" y="-167.8" font-family="Times,serif" font-size="14.00">Tab3Page</text>
</g>
<!-- Tab3Page&#45;&gt;Tab3PageModule -->
<g id="edge52" class="edge">
<title>Tab3Page&#45;&gt;Tab3PageModule</title>
<path fill="none" stroke="black" d="M2693,-190.22C2693,-210.37 2693,-240 2693,-240 2693,-240 2605.72,-240 2605.72,-240"/>
<polygon fill="black" stroke="black" points="2605.72,-236.5 2595.72,-240 2605.72,-243.5 2605.72,-236.5"/>
</g>
<!-- Tab3PageRoutingModule -->
<g id="node36" class="node">
<title>Tab3PageRoutingModule</title>
<polygon fill="#8dd3c7" stroke="black" points="2633.15,-190 2630.15,-194 2609.15,-194 2606.15,-190 2472.85,-190 2472.85,-154 2633.15,-154 2633.15,-190"/>
<text text-anchor="middle" x="2553" y="-167.8" font-family="Times,serif" font-size="14.00">Tab3PageRoutingModule</text>
</g>
<!-- Tab3PageRoutingModule&#45;&gt;Tab3PageModule -->
<g id="edge57" class="edge">
<title>Tab3PageRoutingModule&#45;&gt;Tab3PageModule</title>
<path fill="none" stroke="black" d="M2538,-190.22C2538,-190.22 2538,-211.73 2538,-211.73"/>
<polygon fill="black" stroke="black" points="2534.5,-211.73 2538,-221.73 2541.5,-211.73 2534.5,-211.73"/>
</g>
<!-- TabsPage -->
<g id="node37" class="node">
<title>TabsPage</title>
<polygon fill="#ffffb3" stroke="black" points="4705.42,-122 4634.58,-122 4634.58,-86 4705.42,-86 4705.42,-122"/>
<text text-anchor="middle" x="4670" y="-99.8" font-family="Times,serif" font-size="14.00">TabsPage</text>
</g>
<!-- TabsPage&#45;&gt;TabsPageModule -->
<g id="edge58" class="edge">
<title>TabsPage&#45;&gt;TabsPageModule</title>
<path fill="none" stroke="black" d="M4681.74,-122.29C4681.74,-144.21 4681.74,-178 4681.74,-178 4681.74,-178 4567,-178 4567,-178"/>
<polygon fill="black" stroke="black" points="4567,-174.5 4557,-178 4567,-181.5 4567,-174.5"/>
</g>
<!-- TabsPage&#45;&gt;TabsPageModule -->
<g id="edge63" class="edge">
<title>TabsPage&#45;&gt;TabsPageModule</title>
<path fill="none" stroke="black" d="M4658.26,-122.27C4658.26,-140.56 4658.26,-166 4658.26,-166 4658.26,-166 4567.14,-166 4567.14,-166"/>
<polygon fill="black" stroke="black" points="4567.14,-162.5 4557.14,-166 4567.14,-169.5 4567.14,-162.5"/>
</g>
<!-- TabsPageRoutingModule&#45;&gt;RouterModule  -->
<g id="edge69" class="edge">
<title>TabsPageRoutingModule&#45;&gt;RouterModule </title>
<path fill="none" stroke="black" stroke-dasharray="5,2" d="M4510.08,-122.14C4510.08,-128.46 4510.08,-134 4510.08,-134 4510.08,-134 3867.72,-134 3867.72,-134 3867.72,-134 3867.72,-143.89 3867.72,-143.89"/>
<polygon fill="black" stroke="black" points="3864.22,-143.89 3867.72,-153.89 3871.22,-143.89 3864.22,-143.89"/>
</g>
<!-- TabsPageRoutingModule&#45;&gt;TabsPageModule -->
<g id="edge62" class="edge">
<title>TabsPageRoutingModule&#45;&gt;TabsPageModule</title>
<path fill="none" stroke="black" d="M4533.54,-122.22C4533.54,-122.22 4533.54,-143.73 4533.54,-143.73"/>
<polygon fill="black" stroke="black" points="4530.04,-143.73 4533.54,-153.73 4537.04,-143.73 4530.04,-143.73"/>
</g>
<!-- TabsPageRoutingModule&#45;&gt;TabsPageModule -->
<g id="edge67" class="edge">
<title>TabsPageRoutingModule&#45;&gt;TabsPageModule</title>
<path fill="none" stroke="black" d="M4545.26,-122.22C4545.26,-122.22 4545.26,-143.73 4545.26,-143.73"/>
<polygon fill="black" stroke="black" points="4541.76,-143.73 4545.26,-153.73 4548.76,-143.73 4541.76,-143.73"/>
</g>
</g>
</svg>
