<?xml version="1.0" encoding="UTF-8" standalone="no"?>
<!DOCTYPE svg PUBLIC "-//W3C//DTD SVG 1.1//EN"
 "http://www.w3.org/Graphics/SVG/1.1/DTD/svg11.dtd">
<!-- Generated by graphviz version 2.47.0 (20210316.0004)
 -->
<!-- Title: dependencies Pages: 1 -->
<svg width="904pt" height="211pt"
 viewBox="0.00 0.00 904.00 211.00" xmlns="http://www.w3.org/2000/svg" xmlns:xlink="http://www.w3.org/1999/xlink">
<g id="graph0" class="graph" transform="scale(1 1) rotate(0) translate(4 207)">
<title>dependencies</title>
<polygon fill="white" stroke="transparent" points="-4,4 -4,-207 900,-207 900,4 -4,4"/>
<text text-anchor="start" x="427.01" y="-42.4" font-family="Times-12" font-weight="bold" font-size="14.00">Legend</text>
<polygon fill="#ffffb3" stroke="transparent" points="214,-10 214,-30 234,-30 234,-10 214,-10"/>
<text text-anchor="start" x="237.63" y="-15.4" font-family="Times-12" font-size="14.00"> &#160;Declarations</text>
<polygon fill="#8dd3c7" stroke="transparent" points="327,-10 327,-30 347,-30 347,-10 327,-10"/>
<text text-anchor="start" x="350.73" y="-15.4" font-family="Times-12" font-size="14.00"> &#160;Module</text>
<polygon fill="#80b1d3" stroke="transparent" points="413,-10 413,-30 433,-30 433,-10 413,-10"/>
<text text-anchor="start" x="436.78" y="-15.4" font-family="Times-12" font-size="14.00"> &#160;Bootstrap</text>
<polygon fill="#fdb462" stroke="transparent" points="510,-10 510,-30 530,-30 530,-10 510,-10"/>
<text text-anchor="start" x="533.67" y="-15.4" font-family="Times-12" font-size="14.00"> &#160;Providers</text>
<polygon fill="#fb8072" stroke="transparent" points="606,-10 606,-30 626,-30 626,-10 606,-10"/>
<text text-anchor="start" x="629.73" y="-15.4" font-family="Times-12" font-size="14.00"> &#160;Exports</text>
<g id="clust1" class="cluster">
<title>cluster_Tab3PageModule</title>
<polygon fill="none" stroke="black" stroke-dasharray="1,5" points="8,-70 8,-195 888,-195 888,-70 8,-70"/>
</g>
<g id="clust2" class="cluster">
<title>cluster_Tab3PageModule_declarations</title>
<polygon fill="none" stroke="black" points="792,-78 792,-130 880,-130 880,-78 792,-78"/>
</g>
<g id="clust4" class="cluster">
<title>cluster_Tab3PageModule_imports</title>
<polygon fill="none" stroke="black" points="16,-78 16,-130 784,-130 784,-78 16,-78"/>
</g>
<!-- Tab3Page -->
<g id="node1" class="node">
<title>Tab3Page</title>
<polygon fill="#ffffb3" stroke="black" points="871.98,-122 800.02,-122 800.02,-86 871.98,-86 871.98,-122"/>
<text text-anchor="middle" x="836" y="-99.8" font-family="Times,serif" font-size="14.00">Tab3Page</text>
</g>
<!-- Tab3PageModule -->
<g id="node2" class="node">
<title>Tab3PageModule</title>
<polygon fill="#8dd3c7" stroke="black" points="610.53,-187 607.53,-191 586.53,-191 583.53,-187 495.47,-187 495.47,-151 610.53,-151 610.53,-187"/>
<text text-anchor="middle" x="553" y="-164.8" font-family="Times,serif" font-size="14.00">Tab3PageModule</text>
</g>
<!-- Tab3Page&#45;&gt;Tab3PageModule -->
<g id="edge1" class="edge">
<title>Tab3Page&#45;&gt;Tab3PageModule</title>
<path fill="none" stroke="black" d="M836,-122.28C836,-143.32 836,-175 836,-175 836,-175 620.61,-175 620.61,-175"/>
<polygon fill="black" stroke="black" points="620.61,-171.5 610.61,-175 620.61,-178.5 620.61,-171.5"/>
</g>
<!-- IonicModule -->
<g id="node3" class="node">
<title>IonicModule</title>
<polygon fill="#8dd3c7" stroke="black" points="776.32,-122 773.32,-126 752.32,-126 749.32,-122 687.68,-122 687.68,-86 776.32,-86 776.32,-122"/>
<text text-anchor="middle" x="732" y="-99.8" font-family="Times,serif" font-size="14.00">IonicModule</text>
</g>
<!-- IonicModule&#45;&gt;Tab3PageModule -->
<g id="edge2" class="edge">
<title>IonicModule&#45;&gt;Tab3PageModule</title>
<path fill="none" stroke="black" d="M732,-122.02C732,-139.37 732,-163 732,-163 732,-163 620.62,-163 620.62,-163"/>
<polygon fill="black" stroke="black" points="620.62,-159.5 610.62,-163 620.62,-166.5 620.62,-159.5"/>
</g>
<!-- CommonModule -->
<g id="node4" class="node">
<title>CommonModule</title>
<polygon fill="#8dd3c7" stroke="black" points="669.67,-122 666.67,-126 645.67,-126 642.67,-122 558.33,-122 558.33,-86 669.67,-86 669.67,-122"/>
<text text-anchor="middle" x="614" y="-99.8" font-family="Times,serif" font-size="14.00">CommonModule</text>
</g>
<!-- CommonModule&#45;&gt;Tab3PageModule -->
<g id="edge3" class="edge">
<title>CommonModule&#45;&gt;Tab3PageModule</title>
<path fill="none" stroke="black" d="M584.47,-122.11C584.47,-122.11 584.47,-140.99 584.47,-140.99"/>
<polygon fill="black" stroke="black" points="580.97,-140.99 584.47,-150.99 587.97,-140.99 580.97,-140.99"/>
</g>
<!-- FormsModule -->
<g id="node5" class="node">
<title>FormsModule</title>
<polygon fill="#8dd3c7" stroke="black" points="540.83,-122 537.83,-126 516.83,-126 513.83,-122 445.17,-122 445.17,-86 540.83,-86 540.83,-122"/>
<text text-anchor="middle" x="493" y="-99.8" font-family="Times,serif" font-size="14.00">FormsModule</text>
</g>
<!-- FormsModule&#45;&gt;Tab3PageModule -->
<g id="edge4" class="edge">
<title>FormsModule&#45;&gt;Tab3PageModule</title>
<path fill="none" stroke="black" d="M517.95,-122.11C517.95,-122.11 517.95,-140.99 517.95,-140.99"/>
<polygon fill="black" stroke="black" points="514.45,-140.99 517.95,-150.99 521.45,-140.99 514.45,-140.99"/>
</g>
<!-- ExploreContainerComponentModule -->
<g id="node6" class="node">
<title>ExploreContainerComponentModule</title>
<polygon fill="#8dd3c7" stroke="black" points="427.41,-122 424.41,-126 403.41,-126 400.41,-122 202.59,-122 202.59,-86 427.41,-86 427.41,-122"/>
<text text-anchor="middle" x="315" y="-99.8" font-family="Times,serif" font-size="14.00">ExploreContainerComponentModule</text>
</g>
<!-- ExploreContainerComponentModule&#45;&gt;Tab3PageModule -->
<g id="edge5" class="edge">
<title>ExploreContainerComponentModule&#45;&gt;Tab3PageModule</title>
<path fill="none" stroke="black" d="M315,-122.02C315,-139.37 315,-163 315,-163 315,-163 485.39,-163 485.39,-163"/>
<polygon fill="black" stroke="black" points="485.39,-166.5 495.39,-163 485.39,-159.5 485.39,-166.5"/>
</g>
<!-- Tab3PageRoutingModule -->
<g id="node7" class="node">
<title>Tab3PageRoutingModule</title>
<polygon fill="#8dd3c7" stroke="black" points="184.15,-122 181.15,-126 160.15,-126 157.15,-122 23.85,-122 23.85,-86 184.15,-86 184.15,-122"/>
<text text-anchor="middle" x="104" y="-99.8" font-family="Times,serif" font-size="14.00">Tab3PageRoutingModule</text>
</g>
<!-- Tab3PageRoutingModule&#45;&gt;Tab3PageModule -->
<g id="edge6" class="edge">
<title>Tab3PageRoutingModule&#45;&gt;Tab3PageModule</title>
<path fill="none" stroke="black" d="M104,-122.28C104,-143.32 104,-175 104,-175 104,-175 485.22,-175 485.22,-175"/>
<polygon fill="black" stroke="black" points="485.22,-178.5 495.22,-175 485.22,-171.5 485.22,-178.5"/>
</g>
</g>
</svg>
