<?xml version="1.0" encoding="UTF-8" standalone="no"?>
<!DOCTYPE svg PUBLIC "-//W3C//DTD SVG 1.1//EN"
 "http://www.w3.org/Graphics/SVG/1.1/DTD/svg11.dtd">
<!-- Generated by graphviz version 2.47.0 (20210316.0004)
 -->
<!-- Title: dependencies Pages: 1 -->
<svg width="681pt" height="211pt"
 viewBox="0.00 0.00 681.00 211.00" xmlns="http://www.w3.org/2000/svg" xmlns:xlink="http://www.w3.org/1999/xlink">
<g id="graph0" class="graph" transform="scale(1 1) rotate(0) translate(4 207)">
<title>dependencies</title>
<polygon fill="white" stroke="transparent" points="-4,4 -4,-207 677,-207 677,4 -4,4"/>
<text text-anchor="start" x="315.51" y="-42.4" font-family="Times-12" font-weight="bold" font-size="14.00">Legend</text>
<polygon fill="#ffffb3" stroke="transparent" points="102.5,-10 102.5,-30 122.5,-30 122.5,-10 102.5,-10"/>
<text text-anchor="start" x="126.13" y="-15.4" font-family="Times-12" font-size="14.00"> &#160;Declarations</text>
<polygon fill="#8dd3c7" stroke="transparent" points="215.5,-10 215.5,-30 235.5,-30 235.5,-10 215.5,-10"/>
<text text-anchor="start" x="239.23" y="-15.4" font-family="Times-12" font-size="14.00"> &#160;Module</text>
<polygon fill="#80b1d3" stroke="transparent" points="301.5,-10 301.5,-30 321.5,-30 321.5,-10 301.5,-10"/>
<text text-anchor="start" x="325.28" y="-15.4" font-family="Times-12" font-size="14.00"> &#160;Bootstrap</text>
<polygon fill="#fdb462" stroke="transparent" points="398.5,-10 398.5,-30 418.5,-30 418.5,-10 398.5,-10"/>
<text text-anchor="start" x="422.17" y="-15.4" font-family="Times-12" font-size="14.00"> &#160;Providers</text>
<polygon fill="#fb8072" stroke="transparent" points="494.5,-10 494.5,-30 514.5,-30 514.5,-10 494.5,-10"/>
<text text-anchor="start" x="518.23" y="-15.4" font-family="Times-12" font-size="14.00"> &#160;Exports</text>
<g id="clust1" class="cluster">
<title>cluster_PeoplePageModule</title>
<polygon fill="none" stroke="black" stroke-dasharray="1,5" points="8,-70 8,-195 665,-195 665,-70 8,-70"/>
</g>
<g id="clust4" class="cluster">
<title>cluster_PeoplePageModule_imports</title>
<polygon fill="none" stroke="black" points="122,-78 122,-130 657,-130 657,-78 122,-78"/>
</g>
<g id="clust2" class="cluster">
<title>cluster_PeoplePageModule_declarations</title>
<polygon fill="none" stroke="black" points="16,-78 16,-130 114,-130 114,-78 16,-78"/>
</g>
<!-- PeoplePage -->
<g id="node1" class="node">
<title>PeoplePage</title>
<polygon fill="#ffffb3" stroke="black" points="105.81,-122 24.19,-122 24.19,-86 105.81,-86 105.81,-122"/>
<text text-anchor="middle" x="65" y="-99.8" font-family="Times,serif" font-size="14.00">PeoplePage</text>
</g>
<!-- PeoplePageModule -->
<g id="node2" class="node">
<title>PeoplePageModule</title>
<polygon fill="#8dd3c7" stroke="black" points="424.36,-187 421.36,-191 400.36,-191 397.36,-187 299.64,-187 299.64,-151 424.36,-151 424.36,-187"/>
<text text-anchor="middle" x="362" y="-164.8" font-family="Times,serif" font-size="14.00">PeoplePageModule</text>
</g>
<!-- PeoplePage&#45;&gt;PeoplePageModule -->
<g id="edge1" class="edge">
<title>PeoplePage&#45;&gt;PeoplePageModule</title>
<path fill="none" stroke="black" d="M65,-122.11C65,-141.34 65,-169 65,-169 65,-169 289.38,-169 289.38,-169"/>
<polygon fill="black" stroke="black" points="289.38,-172.5 299.38,-169 289.38,-165.5 289.38,-172.5"/>
</g>
<!-- CommonModule -->
<g id="node3" class="node">
<title>CommonModule</title>
<polygon fill="#8dd3c7" stroke="black" points="648.67,-122 645.67,-126 624.67,-126 621.67,-122 537.33,-122 537.33,-86 648.67,-86 648.67,-122"/>
<text text-anchor="middle" x="593" y="-99.8" font-family="Times,serif" font-size="14.00">CommonModule</text>
</g>
<!-- CommonModule&#45;&gt;PeoplePageModule -->
<g id="edge2" class="edge">
<title>CommonModule&#45;&gt;PeoplePageModule</title>
<path fill="none" stroke="black" d="M593,-122.11C593,-141.34 593,-169 593,-169 593,-169 434.51,-169 434.51,-169"/>
<polygon fill="black" stroke="black" points="434.51,-165.5 424.51,-169 434.51,-172.5 434.51,-165.5"/>
</g>
<!-- FormsModule -->
<g id="node4" class="node">
<title>FormsModule</title>
<polygon fill="#8dd3c7" stroke="black" points="519.83,-122 516.83,-126 495.83,-126 492.83,-122 424.17,-122 424.17,-86 519.83,-86 519.83,-122"/>
<text text-anchor="middle" x="472" y="-99.8" font-family="Times,serif" font-size="14.00">FormsModule</text>
</g>
<!-- FormsModule&#45;&gt;PeoplePageModule -->
<g id="edge3" class="edge">
<title>FormsModule&#45;&gt;PeoplePageModule</title>
<path fill="none" stroke="black" d="M424.11,-104C418.79,-104 415.25,-104 415.25,-104 415.25,-104 415.25,-140.89 415.25,-140.89"/>
<polygon fill="black" stroke="black" points="411.75,-140.89 415.25,-150.89 418.75,-140.89 411.75,-140.89"/>
</g>
<!-- IonicModule -->
<g id="node5" class="node">
<title>IonicModule</title>
<polygon fill="#8dd3c7" stroke="black" points="406.32,-122 403.32,-126 382.32,-126 379.32,-122 317.68,-122 317.68,-86 406.32,-86 406.32,-122"/>
<text text-anchor="middle" x="362" y="-99.8" font-family="Times,serif" font-size="14.00">IonicModule</text>
</g>
<!-- IonicModule&#45;&gt;PeoplePageModule -->
<g id="edge4" class="edge">
<title>IonicModule&#45;&gt;PeoplePageModule</title>
<path fill="none" stroke="black" d="M362,-122.11C362,-122.11 362,-140.99 362,-140.99"/>
<polygon fill="black" stroke="black" points="358.5,-140.99 362,-150.99 365.5,-140.99 358.5,-140.99"/>
</g>
<!-- PeoplePageRoutingModule -->
<g id="node6" class="node">
<title>PeoplePageRoutingModule</title>
<polygon fill="#8dd3c7" stroke="black" points="299.98,-122 296.98,-126 275.98,-126 272.98,-122 130.02,-122 130.02,-86 299.98,-86 299.98,-122"/>
<text text-anchor="middle" x="215" y="-99.8" font-family="Times,serif" font-size="14.00">PeoplePageRoutingModule</text>
</g>
<!-- PeoplePageRoutingModule&#45;&gt;PeoplePageModule -->
<g id="edge5" class="edge">
<title>PeoplePageRoutingModule&#45;&gt;PeoplePageModule</title>
<path fill="none" stroke="black" d="M300.25,-104C305.61,-104 308.92,-104 308.92,-104 308.92,-104 308.92,-140.89 308.92,-140.89"/>
<polygon fill="black" stroke="black" points="305.42,-140.89 308.92,-150.89 312.42,-140.89 305.42,-140.89"/>
</g>
</g>
</svg>
