<?xml version="1.0" encoding="UTF-8" standalone="no"?>
<!DOCTYPE svg PUBLIC "-//W3C//DTD SVG 1.1//EN"
 "http://www.w3.org/Graphics/SVG/1.1/DTD/svg11.dtd">
<!-- Generated by graphviz version 2.47.0 (20210316.0004)
 -->
<!-- Title: dependencies Pages: 1 -->
<svg width="904pt" height="211pt"
 viewBox="0.00 0.00 904.00 211.00" xmlns="http://www.w3.org/2000/svg" xmlns:xlink="http://www.w3.org/1999/xlink">
<g id="graph0" class="graph" transform="scale(1 1) rotate(0) translate(4 207)">
<title>dependencies</title>
<polygon fill="white" stroke="transparent" points="-4,4 -4,-207 900,-207 900,4 -4,4"/>
<text text-anchor="start" x="427.01" y="-42.4" font-family="Times-12" font-weight="bold" font-size="14.00">Legend</text>
<polygon fill="#ffffb3" stroke="transparent" points="214,-10 214,-30 234,-30 234,-10 214,-10"/>
<text text-anchor="start" x="237.63" y="-15.4" font-family="Times-12" font-size="14.00"> &#160;Declarations</text>
<polygon fill="#8dd3c7" stroke="transparent" points="327,-10 327,-30 347,-30 347,-10 327,-10"/>
<text text-anchor="start" x="350.73" y="-15.4" font-family="Times-12" font-size="14.00"> &#160;Module</text>
<polygon fill="#80b1d3" stroke="transparent" points="413,-10 413,-30 433,-30 433,-10 413,-10"/>
<text text-anchor="start" x="436.78" y="-15.4" font-family="Times-12" font-size="14.00"> &#160;Bootstrap</text>
<polygon fill="#fdb462" stroke="transparent" points="510,-10 510,-30 530,-30 530,-10 510,-10"/>
<text text-anchor="start" x="533.67" y="-15.4" font-family="Times-12" font-size="14.00"> &#160;Providers</text>
<polygon fill="#fb8072" stroke="transparent" points="606,-10 606,-30 626,-30 626,-10 606,-10"/>
<text text-anchor="start" x="629.73" y="-15.4" font-family="Times-12" font-size="14.00"> &#160;Exports</text>
<g id="clust1" class="cluster">
<title>cluster_Tab1PageModule</title>
<polygon fill="none" stroke="black" stroke-dasharray="1,5" points="8,-70 8,-195 888,-195 888,-70 8,-70"/>
</g>
<g id="clust4" class="cluster">
<title>cluster_Tab1PageModule_imports</title>
<polygon fill="none" stroke="black" points="112,-78 112,-130 880,-130 880,-78 112,-78"/>
</g>
<g id="clust2" class="cluster">
<title>cluster_Tab1PageModule_declarations</title>
<polygon fill="none" stroke="black" points="16,-78 16,-130 104,-130 104,-78 16,-78"/>
</g>
<!-- Tab1Page -->
<g id="node1" class="node">
<title>Tab1Page</title>
<polygon fill="#ffffb3" stroke="black" points="95.98,-122 24.02,-122 24.02,-86 95.98,-86 95.98,-122"/>
<text text-anchor="middle" x="60" y="-99.8" font-family="Times,serif" font-size="14.00">Tab1Page</text>
</g>
<!-- Tab1PageModule -->
<g id="node2" class="node">
<title>Tab1PageModule</title>
<polygon fill="#8dd3c7" stroke="black" points="557.53,-187 554.53,-191 533.53,-191 530.53,-187 442.47,-187 442.47,-151 557.53,-151 557.53,-187"/>
<text text-anchor="middle" x="500" y="-164.8" font-family="Times,serif" font-size="14.00">Tab1PageModule</text>
</g>
<!-- Tab1Page&#45;&gt;Tab1PageModule -->
<g id="edge1" class="edge">
<title>Tab1Page&#45;&gt;Tab1PageModule</title>
<path fill="none" stroke="black" d="M60,-122.28C60,-143.32 60,-175 60,-175 60,-175 432.03,-175 432.03,-175"/>
<polygon fill="black" stroke="black" points="432.03,-178.5 442.03,-175 432.03,-171.5 432.03,-178.5"/>
</g>
<!-- IonicModule -->
<g id="node3" class="node">
<title>IonicModule</title>
<polygon fill="#8dd3c7" stroke="black" points="872.32,-122 869.32,-126 848.32,-126 845.32,-122 783.68,-122 783.68,-86 872.32,-86 872.32,-122"/>
<text text-anchor="middle" x="828" y="-99.8" font-family="Times,serif" font-size="14.00">IonicModule</text>
</g>
<!-- IonicModule&#45;&gt;Tab1PageModule -->
<g id="edge2" class="edge">
<title>IonicModule&#45;&gt;Tab1PageModule</title>
<path fill="none" stroke="black" d="M828,-122.28C828,-143.32 828,-175 828,-175 828,-175 567.88,-175 567.88,-175"/>
<polygon fill="black" stroke="black" points="567.88,-171.5 557.88,-175 567.88,-178.5 567.88,-171.5"/>
</g>
<!-- CommonModule -->
<g id="node4" class="node">
<title>CommonModule</title>
<polygon fill="#8dd3c7" stroke="black" points="765.67,-122 762.67,-126 741.67,-126 738.67,-122 654.33,-122 654.33,-86 765.67,-86 765.67,-122"/>
<text text-anchor="middle" x="710" y="-99.8" font-family="Times,serif" font-size="14.00">CommonModule</text>
</g>
<!-- CommonModule&#45;&gt;Tab1PageModule -->
<g id="edge3" class="edge">
<title>CommonModule&#45;&gt;Tab1PageModule</title>
<path fill="none" stroke="black" d="M710,-122.02C710,-139.37 710,-163 710,-163 710,-163 567.66,-163 567.66,-163"/>
<polygon fill="black" stroke="black" points="567.66,-159.5 557.66,-163 567.66,-166.5 567.66,-159.5"/>
</g>
<!-- FormsModule -->
<g id="node5" class="node">
<title>FormsModule</title>
<polygon fill="#8dd3c7" stroke="black" points="636.83,-122 633.83,-126 612.83,-126 609.83,-122 541.17,-122 541.17,-86 636.83,-86 636.83,-122"/>
<text text-anchor="middle" x="589" y="-99.8" font-family="Times,serif" font-size="14.00">FormsModule</text>
</g>
<!-- FormsModule&#45;&gt;Tab1PageModule -->
<g id="edge4" class="edge">
<title>FormsModule&#45;&gt;Tab1PageModule</title>
<path fill="none" stroke="black" d="M549.55,-122.11C549.55,-122.11 549.55,-140.99 549.55,-140.99"/>
<polygon fill="black" stroke="black" points="546.05,-140.99 549.55,-150.99 553.05,-140.99 546.05,-140.99"/>
</g>
<!-- ExploreContainerComponentModule -->
<g id="node6" class="node">
<title>ExploreContainerComponentModule</title>
<polygon fill="#8dd3c7" stroke="black" points="523.41,-122 520.41,-126 499.41,-126 496.41,-122 298.59,-122 298.59,-86 523.41,-86 523.41,-122"/>
<text text-anchor="middle" x="411" y="-99.8" font-family="Times,serif" font-size="14.00">ExploreContainerComponentModule</text>
</g>
<!-- ExploreContainerComponentModule&#45;&gt;Tab1PageModule -->
<g id="edge5" class="edge">
<title>ExploreContainerComponentModule&#45;&gt;Tab1PageModule</title>
<path fill="none" stroke="black" d="M482.72,-122.11C482.72,-122.11 482.72,-140.99 482.72,-140.99"/>
<polygon fill="black" stroke="black" points="479.22,-140.99 482.72,-150.99 486.22,-140.99 479.22,-140.99"/>
</g>
<!-- Tab1PageRoutingModule -->
<g id="node7" class="node">
<title>Tab1PageRoutingModule</title>
<polygon fill="#8dd3c7" stroke="black" points="280.15,-122 277.15,-126 256.15,-126 253.15,-122 119.85,-122 119.85,-86 280.15,-86 280.15,-122"/>
<text text-anchor="middle" x="200" y="-99.8" font-family="Times,serif" font-size="14.00">Tab1PageRoutingModule</text>
</g>
<!-- Tab1PageRoutingModule&#45;&gt;Tab1PageModule -->
<g id="edge6" class="edge">
<title>Tab1PageRoutingModule&#45;&gt;Tab1PageModule</title>
<path fill="none" stroke="black" d="M200,-122.02C200,-139.37 200,-163 200,-163 200,-163 432.16,-163 432.16,-163"/>
<polygon fill="black" stroke="black" points="432.16,-166.5 442.16,-163 432.16,-159.5 432.16,-166.5"/>
</g>
</g>
</svg>
