<?xml version="1.0" encoding="UTF-8" standalone="no"?>
<!DOCTYPE svg PUBLIC "-//W3C//DTD SVG 1.1//EN"
 "http://www.w3.org/Graphics/SVG/1.1/DTD/svg11.dtd">
<!-- Generated by graphviz version 2.47.0 (20210316.0004)
 -->
<!-- Title: dependencies Pages: 1 -->
<svg width="1140pt" height="284pt"
 viewBox="0.00 0.00 1140.00 284.00" xmlns="http://www.w3.org/2000/svg" xmlns:xlink="http://www.w3.org/1999/xlink">
<g id="graph0" class="graph" transform="scale(1 1) rotate(0) translate(4 280)">
<title>dependencies</title>
<polygon fill="white" stroke="transparent" points="-4,4 -4,-280 1136,-280 1136,4 -4,4"/>
<text text-anchor="start" x="545.01" y="-42.4" font-family="Times-12" font-weight="bold" font-size="14.00">Legend</text>
<polygon fill="#ffffb3" stroke="transparent" points="332,-10 332,-30 352,-30 352,-10 332,-10"/>
<text text-anchor="start" x="355.63" y="-15.4" font-family="Times-12" font-size="14.00"> &#160;Declarations</text>
<polygon fill="#8dd3c7" stroke="transparent" points="445,-10 445,-30 465,-30 465,-10 445,-10"/>
<text text-anchor="start" x="468.73" y="-15.4" font-family="Times-12" font-size="14.00"> &#160;Module</text>
<polygon fill="#80b1d3" stroke="transparent" points="531,-10 531,-30 551,-30 551,-10 531,-10"/>
<text text-anchor="start" x="554.78" y="-15.4" font-family="Times-12" font-size="14.00"> &#160;Bootstrap</text>
<polygon fill="#fdb462" stroke="transparent" points="628,-10 628,-30 648,-30 648,-10 628,-10"/>
<text text-anchor="start" x="651.67" y="-15.4" font-family="Times-12" font-size="14.00"> &#160;Providers</text>
<polygon fill="#fb8072" stroke="transparent" points="724,-10 724,-30 744,-30 744,-10 724,-10"/>
<text text-anchor="start" x="747.73" y="-15.4" font-family="Times-12" font-size="14.00"> &#160;Exports</text>
<g id="clust1" class="cluster">
<title>cluster_AppModule</title>
<polygon fill="none" stroke="black" stroke-dasharray="1,5" points="8,-70 8,-268 1124,-268 1124,-70 8,-70"/>
</g>
<g id="clust6" class="cluster">
<title>cluster_AppModule_bootstrap</title>
<polygon fill="none" stroke="black" points="325,-208 325,-260 449,-260 449,-208 325,-208"/>
</g>
<g id="clust7" class="cluster">
<title>cluster_AppModule_providers</title>
<polygon fill="none" stroke="black" points="586,-78 586,-130 1116,-130 1116,-78 586,-78"/>
</g>
<g id="clust2" class="cluster">
<title>cluster_AppModule_declarations</title>
<polygon fill="none" stroke="black" points="456,-78 456,-130 578,-130 578,-78 456,-78"/>
</g>
<g id="clust4" class="cluster">
<title>cluster_AppModule_imports</title>
<polygon fill="none" stroke="black" points="16,-78 16,-130 448,-130 448,-78 16,-78"/>
</g>
<!-- AppComponent -->
<g id="node1" class="node">
<title>AppComponent</title>
<polygon fill="#ffffb3" stroke="black" points="569.94,-122 464.06,-122 464.06,-86 569.94,-86 569.94,-122"/>
<text text-anchor="middle" x="517" y="-99.8" font-family="Times,serif" font-size="14.00">AppComponent</text>
</g>
<!-- AppModule -->
<g id="node2" class="node">
<title>AppModule</title>
<polygon fill="#8dd3c7" stroke="black" points="428.66,-187 425.66,-191 404.66,-191 401.66,-187 345.34,-187 345.34,-151 428.66,-151 428.66,-187"/>
<text text-anchor="middle" x="387" y="-164.8" font-family="Times,serif" font-size="14.00">AppModule</text>
</g>
<!-- AppComponent&#45;&gt;AppModule -->
<g id="edge1" class="edge">
<title>AppComponent&#45;&gt;AppModule</title>
<path fill="none" stroke="black" d="M517,-122.02C517,-139.37 517,-163 517,-163 517,-163 438.85,-163 438.85,-163"/>
<polygon fill="black" stroke="black" points="438.85,-159.5 428.85,-163 438.85,-166.5 438.85,-159.5"/>
</g>
<!-- AppComponent  -->
<g id="node6" class="node">
<title>AppComponent </title>
<polygon fill="#80b1d3" stroke="black" points="441.44,-252 332.56,-252 332.56,-216 441.44,-216 441.44,-252"/>
<text text-anchor="middle" x="387" y="-229.8" font-family="Times,serif" font-size="14.00">AppComponent </text>
</g>
<!-- AppModule&#45;&gt;AppComponent  -->
<g id="edge5" class="edge">
<title>AppModule&#45;&gt;AppComponent </title>
<path fill="none" stroke="black" stroke-dasharray="1,5" d="M387,-187.11C387,-187.11 387,-205.99 387,-205.99"/>
<polygon fill="black" stroke="black" points="383.5,-205.99 387,-215.99 390.5,-205.99 383.5,-205.99"/>
</g>
<!-- BrowserModule -->
<g id="node3" class="node">
<title>BrowserModule</title>
<polygon fill="#8dd3c7" stroke="black" points="440.47,-122 437.47,-126 416.47,-126 413.47,-122 333.53,-122 333.53,-86 440.47,-86 440.47,-122"/>
<text text-anchor="middle" x="387" y="-99.8" font-family="Times,serif" font-size="14.00">BrowserModule</text>
</g>
<!-- BrowserModule&#45;&gt;AppModule -->
<g id="edge2" class="edge">
<title>BrowserModule&#45;&gt;AppModule</title>
<path fill="none" stroke="black" d="M387,-122.11C387,-122.11 387,-140.99 387,-140.99"/>
<polygon fill="black" stroke="black" points="383.5,-140.99 387,-150.99 390.5,-140.99 383.5,-140.99"/>
</g>
<!-- IonicModule.forRoot() -->
<g id="node4" class="node">
<title>IonicModule.forRoot()</title>
<polygon fill="#8dd3c7" stroke="black" points="315.19,-122 312.19,-126 291.19,-126 288.19,-122 170.81,-122 170.81,-86 315.19,-86 315.19,-122"/>
<text text-anchor="middle" x="243" y="-99.8" font-family="Times,serif" font-size="14.00">IonicModule.forRoot()</text>
</g>
<!-- IonicModule.forRoot()&#45;&gt;AppModule -->
<g id="edge3" class="edge">
<title>IonicModule.forRoot()&#45;&gt;AppModule</title>
<path fill="none" stroke="black" d="M243,-122.02C243,-139.37 243,-163 243,-163 243,-163 334.96,-163 334.96,-163"/>
<polygon fill="black" stroke="black" points="334.96,-166.5 344.96,-163 334.96,-159.5 334.96,-166.5"/>
</g>
<!-- AppRoutingModule -->
<g id="node5" class="node">
<title>AppRoutingModule</title>
<polygon fill="#8dd3c7" stroke="black" points="152.27,-122 149.27,-126 128.27,-126 125.27,-122 23.73,-122 23.73,-86 152.27,-86 152.27,-122"/>
<text text-anchor="middle" x="88" y="-99.8" font-family="Times,serif" font-size="14.00">AppRoutingModule</text>
</g>
<!-- AppRoutingModule&#45;&gt;AppModule -->
<g id="edge4" class="edge">
<title>AppRoutingModule&#45;&gt;AppModule</title>
<path fill="none" stroke="black" d="M88,-122.28C88,-143.32 88,-175 88,-175 88,-175 335.11,-175 335.11,-175"/>
<polygon fill="black" stroke="black" points="335.11,-178.5 345.11,-175 335.11,-171.5 335.11,-178.5"/>
</g>
<!-- { provide: RouteReuseStrategy, useClass: IonicRouteStrategy } -->
<g id="node7" class="node">
<title>{ provide: RouteReuseStrategy, useClass: IonicRouteStrategy }</title>
<ellipse fill="#fdb462" stroke="black" cx="851" cy="-104" rx="257.27" ry="18"/>
<text text-anchor="middle" x="851" y="-99.8" font-family="Times,serif" font-size="14.00">{ provide: RouteReuseStrategy, useClass: IonicRouteStrategy }</text>
</g>
<!-- { provide: RouteReuseStrategy, useClass: IonicRouteStrategy }&#45;&gt;AppModule -->
<g id="edge6" class="edge">
<title>{ provide: RouteReuseStrategy, useClass: IonicRouteStrategy }&#45;&gt;AppModule</title>
<path fill="none" stroke="black" d="M851,-122.28C851,-143.32 851,-175 851,-175 851,-175 439,-175 439,-175"/>
<polygon fill="black" stroke="black" points="439,-171.5 429,-175 439,-178.5 439,-171.5"/>
</g>
</g>
</svg>
