<?xml version="1.0" encoding="UTF-8" standalone="no"?>
<!DOCTYPE svg PUBLIC "-//W3C//DTD SVG 1.1//EN"
 "http://www.w3.org/Graphics/SVG/1.1/DTD/svg11.dtd">
<!-- Generated by graphviz version 2.47.0 (20210316.0004)
 -->
<!-- Title: dependencies Pages: 1 -->
<svg width="685pt" height="211pt"
 viewBox="0.00 0.00 685.00 211.00" xmlns="http://www.w3.org/2000/svg" xmlns:xlink="http://www.w3.org/1999/xlink">
<g id="graph0" class="graph" transform="scale(1 1) rotate(0) translate(4 207)">
<title>dependencies</title>
<polygon fill="white" stroke="transparent" points="-4,4 -4,-207 681,-207 681,4 -4,4"/>
<text text-anchor="start" x="317.51" y="-42.4" font-family="Times-12" font-weight="bold" font-size="14.00">Legend</text>
<polygon fill="#ffffb3" stroke="transparent" points="104.5,-10 104.5,-30 124.5,-30 124.5,-10 104.5,-10"/>
<text text-anchor="start" x="128.13" y="-15.4" font-family="Times-12" font-size="14.00"> &#160;Declarations</text>
<polygon fill="#8dd3c7" stroke="transparent" points="217.5,-10 217.5,-30 237.5,-30 237.5,-10 217.5,-10"/>
<text text-anchor="start" x="241.23" y="-15.4" font-family="Times-12" font-size="14.00"> &#160;Module</text>
<polygon fill="#80b1d3" stroke="transparent" points="303.5,-10 303.5,-30 323.5,-30 323.5,-10 303.5,-10"/>
<text text-anchor="start" x="327.28" y="-15.4" font-family="Times-12" font-size="14.00"> &#160;Bootstrap</text>
<polygon fill="#fdb462" stroke="transparent" points="400.5,-10 400.5,-30 420.5,-30 420.5,-10 400.5,-10"/>
<text text-anchor="start" x="424.17" y="-15.4" font-family="Times-12" font-size="14.00"> &#160;Providers</text>
<polygon fill="#fb8072" stroke="transparent" points="496.5,-10 496.5,-30 516.5,-30 516.5,-10 496.5,-10"/>
<text text-anchor="start" x="520.23" y="-15.4" font-family="Times-12" font-size="14.00"> &#160;Exports</text>
<g id="clust1" class="cluster">
<title>cluster_PlanetsPageModule</title>
<polygon fill="none" stroke="black" stroke-dasharray="1,5" points="8,-70 8,-195 669,-195 669,-70 8,-70"/>
</g>
<g id="clust2" class="cluster">
<title>cluster_PlanetsPageModule_declarations</title>
<polygon fill="none" stroke="black" points="561,-78 561,-130 661,-130 661,-78 561,-78"/>
</g>
<g id="clust4" class="cluster">
<title>cluster_PlanetsPageModule_imports</title>
<polygon fill="none" stroke="black" points="16,-78 16,-130 553,-130 553,-78 16,-78"/>
</g>
<!-- PlanetsPage -->
<g id="node1" class="node">
<title>PlanetsPage</title>
<polygon fill="#ffffb3" stroke="black" points="652.65,-122 569.35,-122 569.35,-86 652.65,-86 652.65,-122"/>
<text text-anchor="middle" x="611" y="-99.8" font-family="Times,serif" font-size="14.00">PlanetsPage</text>
</g>
<!-- PlanetsPageModule -->
<g id="node2" class="node">
<title>PlanetsPageModule</title>
<polygon fill="#8dd3c7" stroke="black" points="431.7,-187 428.7,-191 407.7,-191 404.7,-187 304.3,-187 304.3,-151 431.7,-151 431.7,-187"/>
<text text-anchor="middle" x="368" y="-164.8" font-family="Times,serif" font-size="14.00">PlanetsPageModule</text>
</g>
<!-- PlanetsPage&#45;&gt;PlanetsPageModule -->
<g id="edge1" class="edge">
<title>PlanetsPage&#45;&gt;PlanetsPageModule</title>
<path fill="none" stroke="black" d="M611,-122.11C611,-141.34 611,-169 611,-169 611,-169 441.85,-169 441.85,-169"/>
<polygon fill="black" stroke="black" points="441.85,-165.5 431.85,-169 441.85,-172.5 441.85,-165.5"/>
</g>
<!-- CommonModule -->
<g id="node3" class="node">
<title>CommonModule</title>
<polygon fill="#8dd3c7" stroke="black" points="544.67,-122 541.67,-126 520.67,-126 517.67,-122 433.33,-122 433.33,-86 544.67,-86 544.67,-122"/>
<text text-anchor="middle" x="489" y="-99.8" font-family="Times,serif" font-size="14.00">CommonModule</text>
</g>
<!-- CommonModule&#45;&gt;PlanetsPageModule -->
<g id="edge2" class="edge">
<title>CommonModule&#45;&gt;PlanetsPageModule</title>
<path fill="none" stroke="black" d="M433.28,-104C427.47,-104 423.63,-104 423.63,-104 423.63,-104 423.63,-140.89 423.63,-140.89"/>
<polygon fill="black" stroke="black" points="420.13,-140.89 423.63,-150.89 427.13,-140.89 420.13,-140.89"/>
</g>
<!-- FormsModule -->
<g id="node4" class="node">
<title>FormsModule</title>
<polygon fill="#8dd3c7" stroke="black" points="415.83,-122 412.83,-126 391.83,-126 388.83,-122 320.17,-122 320.17,-86 415.83,-86 415.83,-122"/>
<text text-anchor="middle" x="368" y="-99.8" font-family="Times,serif" font-size="14.00">FormsModule</text>
</g>
<!-- FormsModule&#45;&gt;PlanetsPageModule -->
<g id="edge3" class="edge">
<title>FormsModule&#45;&gt;PlanetsPageModule</title>
<path fill="none" stroke="black" d="M368,-122.11C368,-122.11 368,-140.99 368,-140.99"/>
<polygon fill="black" stroke="black" points="364.5,-140.99 368,-150.99 371.5,-140.99 364.5,-140.99"/>
</g>
<!-- IonicModule -->
<g id="node5" class="node">
<title>IonicModule</title>
<polygon fill="#8dd3c7" stroke="black" points="302.32,-122 299.32,-126 278.32,-126 275.32,-122 213.68,-122 213.68,-86 302.32,-86 302.32,-122"/>
<text text-anchor="middle" x="258" y="-99.8" font-family="Times,serif" font-size="14.00">IonicModule</text>
</g>
<!-- IonicModule&#45;&gt;PlanetsPageModule -->
<g id="edge4" class="edge">
<title>IonicModule&#45;&gt;PlanetsPageModule</title>
<path fill="none" stroke="black" d="M302.4,-104C308.3,-104 312.37,-104 312.37,-104 312.37,-104 312.37,-140.89 312.37,-140.89"/>
<polygon fill="black" stroke="black" points="308.87,-140.89 312.37,-150.89 315.87,-140.89 308.87,-140.89"/>
</g>
<!-- PlanetsPageRoutingModule -->
<g id="node6" class="node">
<title>PlanetsPageRoutingModule</title>
<polygon fill="#8dd3c7" stroke="black" points="196.32,-122 193.32,-126 172.32,-126 169.32,-122 23.68,-122 23.68,-86 196.32,-86 196.32,-122"/>
<text text-anchor="middle" x="110" y="-99.8" font-family="Times,serif" font-size="14.00">PlanetsPageRoutingModule</text>
</g>
<!-- PlanetsPageRoutingModule&#45;&gt;PlanetsPageModule -->
<g id="edge5" class="edge">
<title>PlanetsPageRoutingModule&#45;&gt;PlanetsPageModule</title>
<path fill="none" stroke="black" d="M110,-122.11C110,-141.34 110,-169 110,-169 110,-169 294.22,-169 294.22,-169"/>
<polygon fill="black" stroke="black" points="294.22,-172.5 304.22,-169 294.22,-165.5 294.22,-172.5"/>
</g>
</g>
</svg>
